<svg width="1404" height="1872" viewBox="-702 0 1404 1872" xmlns="http://www.w3.org/2000/svg" xmlns:xlink="http://www.w3.org/1999/xlink" version="1.2" baseProfile="tiny"><title>Erix World</title>
<g><path fill="#000000" fill-rule="evenodd" d="M208 1138.5 L199.5 1137 L196 1133.5 L195.375 1131 L193.75 1127 L192.5 1122 L192 1116.5 L195 1113.5 L195 1112.5 L196.5 1111 L197.75 1110.75 L198 1109.5 L199.5 1108 L211 1108.88 L213 1109.5 L215 1110.5 L216.5 1111 L221 1115.5 L222 1118.5 L224 1120.5 L224.625 1124 L224.5 1126 L224 1127.5 L222.5 1129 L217.5 1130 L217 1130 L217.5 1131 L218.75 1131.25 L219 1133.5 L216.5 1136 L215 1136.38 L212 1137.5 L208 1138.5 M200.5 1133 L201 1132.5 L201 1131.5 L202.5 1130 L203.5 1130 L204.5 1131 L205.5 1130 L210 1129.38 L216 1127.5 L219.5 1127 L221 1125.5 L220.375 1122 L219.75 1120.25 L218 1119.75 L213 1119.75 L207 1121.5 L203.5 1122 L202.5 1123 L201.5 1122 L199.5 1124 L198.5 1123 L197 1124.5 L197.625 1127 L198.375 1129 L199 1131.5 L200.5 1133 M208 1134.63 L215.5 1133 L217 1131.5 L216.5 1131 L210 1132.5 L205.25 1133.13 L205.25 1134.75 L208 1134.63 "/></g><g><path fill="#000000" fill-rule="evenodd" d="M42 1077.38 L37 1078.63 L34 1079.63 L32 1080.5 L30.5 1081 L29 1082.5 L29 1083.5 L27.5 1085 L19.5 1086 L17.5 1084 L16.5 1084 L14 1081.5 L14.5 1076 L16 1069.5 L18 1067.5 L18.5 1066 L23.25 1059.25 L34 1055.5 L37 1055.5 L41 1056.63 L48 1060.5 L49.5 1061 L51 1062.5 L53.25 1066.75 L55.5 1067 L58 1069.5 L57 1070.5 L57 1072.5 L55.5 1074 L54.25 1074.25 L53.75 1076.75 L45 1076.63 L42 1077.38 M39 1074.5 L49.75 1071.75 L49.75 1070.25 L44.5 1071 L42.5 1069 L40 1069.5 L37 1070.5 L34.5 1071 L33.5 1070 L32.5 1071 L23.5 1072 L21.5 1074 L20.5 1074 L18 1076.5 L18.125 1080.75 L22 1080.5 L35 1075.5 L39 1074.5 "/></g><g><path fill="#000000" fill-rule="evenodd" d="M-73.5 1118 L-84 1117.5 L-92 1116.25 L-97 1113.5 L-98.5 1113 L-104 1107.5 L-105.75 1096 L-105.375 1093 L-104.5 1091 L-102 1086.5 L-100.5 1085 L-96 1083.63 L-90 1083.63 L-87 1084.5 L-82 1086.5 L-75.5 1090 L-70 1095.5 L-67.75 1100 L-67.75 1106 L-70.25 1110.75 L-71.5 1111 L-73 1112.5 L-72.75 1113.75 L-71.25 1114.25 L-71 1115.5 L-73.5 1118 M-79 1113.13 L-77.5 1113 L-71 1106.5 L-70 1100.5 L-74.5 1096 L-84 1094.38 L-88 1094.63 L-89.5 1095 L-91.5 1097 L-94 1097.5 L-97 1098.63 L-98.5 1099 L-101 1101.5 L-101 1105.5 L-96.5 1110 L-92 1112.5 L-90 1113.13 L-79 1113.13 "/></g><g><path fill="#000000" fill-rule="evenodd" d="M-76 1141.5 L-81 1141.5 L-84.75 1140.75 L-85.25 1138 L-102.5 1137 L-103.5 1136 L-104.5 1137 L-109 1136.5 L-114 1135.38 L-117 1134.38 L-119 1133.5 L-120.5 1133 L-124 1129.5 L-127.5 1124 L-128.5 1122 L-129 1120.5 L-131 1118.5 L-132.375 1110 L-132.375 1100 L-129.5 1088 L-127.75 1083.25 L-126.25 1082.75 L-126 1081.5 L-122 1077.5 L-122 1075.5 L-115.5 1069 L-110 1065.63 L-100 1061.63 L-88 1059.63 L-69 1059.75 L-63 1060.5 L-55 1062.63 L-50 1064.63 L-45.5 1067 L-38 1074.5 L-36.75 1080 L-36.625 1093 L-37.5 1098 L-38.625 1102 L-42.375 1111 L-43 1113.5 L-45 1115.5 L-45.5 1117 L-46.5 1119 L-54.5 1129 L-54 1131.5 L-53 1133.5 L-54.5 1135 L-56.5 1135 L-57.5 1136 L-58.5 1135 L-61.5 1135 L-65.5 1139 L-76 1141.5 M-76 1133.25 L-62.5 1131 L-61 1129.5 L-63 1127.5 L-60.5 1125 L-58.5 1125 L-57.5 1124 L-57 1124.5 L-57 1125.5 L-56.5 1126 L-50 1119.5 L-49.5 1118 L-46.5 1113 L-41.5 1101 L-39.625 1093 L-39.75 1080 L-41 1075.5 L-44.5 1072 L-67 1069.13 L-78 1070.63 L-87 1073.38 L-93 1074.63 L-96 1075.63 L-112 1083.5 L-113.5 1084 L-124 1094.5 L-127.5 1101 L-128.25 1103 L-128.375 1113 L-127.375 1117 L-126.5 1119 L-123 1124.5 L-122 1126.5 L-118.5 1130 L-117 1130.5 L-115 1131.38 L-112 1132.25 L-76 1133.25 M-66 1136 L-66 1135 L-67 1135 L-67 1136 L-66 1136 M-76 1138.5 L-71 1137.25 L-69.5 1137 L-69 1136 L-69.5 1136 L-80.5 1138 L-81 1139 L-76 1138.5 "/></g><g><path fill="#000000" fill-rule="evenodd" d="M247.5 1018 L245.5 1018 L244 1016.5 L245.5 1015 L246.5 1015 L247.5 1014 L249 1015.5 L249 1016.5 L247.5 1018 "/></g><g><path fill="#000000" fill-rule="evenodd" d="M231 1145.5 L228 1146.5 L191 1156.63 L181 1159.75 L179.5 1160 L178.5 1161 L177.5 1160 L173.5 1159 L172 1157.5 L175.625 1112 L177 1106.5 L175 1104.5 L175 1102.5 L177 1100.5 L177.5 1099 L181.5 1093 L182 1091.5 L183.5 1090 L184.5 1090 L186.5 1088 L187.5 1089 L189.5 1087 L192 1086.38 L197 1086.5 L201 1085.63 L213.5 1086 L214.5 1085 L215.5 1086 L217 1085.5 L219 1085.38 L222 1086.5 L224.5 1087 L226.5 1089 L229 1089.63 L231 1089.75 L228.875 1021 L228.625 1019 L228.5 1010 L229.25 1008.25 L230.75 1007.75 L232.625 1001 L234.25 997.25 L238 995.625 L240.5 995 L242.5 993 L244 992.5 L246 992.5 L248 993.375 L251.75 994.25 L254.25 1001.75 L257.75 1002.25 L258.375 1115 L257 1126.5 L254.5 1129 L253.5 1128 L252.25 1128.25 L251.5 1130 L246.75 1138.75 L244 1139.63 L231 1145.5 M232 1141.5 L234 1140.5 L241 1137.5 L242.5 1137 L246 1133.5 L246.5 1132 L248.5 1128 L250.5 1123 L250.375 1119 L250 1117.5 L251.5 1116 L252.5 1116 L254.5 1118 L255 1117.5 L254 1005.5 L253 1005 L253 1005.5 L251.75 1008.75 L249.25 1008.75 L249 1006.5 L250 1005.5 L249.5 1005 L246.25 1005.25 L245.75 1006.75 L242 1008.38 L239.5 1009 L237 1011.5 L237 1012.5 L234 1015.5 L232.875 1020 L231.25 1033 L234.875 1091 L235.5 1093 L235.625 1095 L235 1097.5 L233.5 1099 L228.5 1099 L226.5 1097 L212.5 1098 L211.5 1097 L209.5 1099 L192 1101.75 L186.25 1103.25 L185.75 1104.75 L184.5 1105 L183 1106.5 L182.75 1107.75 L181.5 1108 L180 1109.5 L178.75 1115 L175 1154.5 L176.5 1156 L177.5 1156 L178.5 1157 L179.5 1156 L182 1155.63 L232 1141.5 "/></g><g><path fill="#000000" fill-rule="evenodd" d="M145 1159.63 L137.5 1159 L135.5 1157 L134.5 1158 L133 1157.63 L130 1157.5 L126 1158.63 L124 1159.38 L121 1159.38 L119.25 1158.75 L118.75 1157 L118 1152.5 L117 1151.5 L118 1150.5 L119 1129.5 L116 1126.5 L115.5 1123 L114.75 1120.25 L113.5 1120 L112 1118.5 L112 1115.5 L113.5 1114 L114.5 1114 L115.5 1115 L116 1114.5 L116.5 1050 L119.5 1031 L120.5 1027 L122.5 1022 L123.5 1020 L127 1014.5 L129.5 1012 L131.5 1011 L134.5 1009 L136.5 1008 L138 1006.5 L141.25 1001.25 L145 1001.63 L146.5 1002 L148 1003.5 L148.875 1144 L149.5 1146 L150.5 1148 L151 1149.5 L154 1152.5 L153.75 1154.75 L152.5 1155 L151 1156.5 L150.75 1157.75 L145 1159.63 M145.75 1146.75 L144 1010.13 L138.5 1010 L135.5 1013 L131.5 1015 L130 1016.5 L126.5 1022 L124.625 1026 L123.625 1029 L120.5 1046 L121.125 1125 L121 1146.5 L121.5 1147 L123.5 1145 L126 1144.63 L132 1144.5 L136 1145.5 L145.75 1146.75 "/></g><g><path fill="#000000" fill-rule="evenodd" d="M59 1152.38 L55.5 1153 L53 1150.5 L52 1147.5 L49.5 1145 L46.25 1143.75 L45.375 1141 L43.75 1137.25 L37.5 1133 L35.5 1132 L32 1128.5 L31.75 1127.25 L28.5 1126 L27 1124.5 L27 1123.5 L23.5 1120 L22.5 1121 L19.5 1121 L17 1123.5 L3 1147.5 L1 1149.5 L0.75 1151.75 L-1.75 1152.25 L-4.25 1156.75 L-7 1156.38 L-8.5 1156 L-11 1153.5 L-10.75 1150.25 L-9.25 1149.75 L-7.875 1146 L-8 1133.5 L-7 1132.5 L-8 1131.5 L-8 1129 L-9 1129.5 L-9.25 1130.75 L-12.5 1132 L-14 1133.5 L-14 1134.5 L-16.5 1137 L-18.75 1136.75 L-20 1133.5 L-21 1132.5 L-18 1129.5 L-13.5 1099 L-9.375 1081 L-5.5 1071 L-4 1068.5 L8 1053.5 L10.5 1051 L13 1049.5 L16.5 1047 L27 1041.63 L31 1040.63 L39 1039.38 L43 1039.38 L57 1041.5 L64 1043.5 L69 1045.38 L71.5 1046 L73.5 1048 L78.5 1049 L80.5 1051 L81.5 1051 L91 1060.5 L95.375 1069 L96 1071.5 L95 1072.5 L96 1073.5 L95 1074.5 L95 1076.5 L89.5 1082 L82 1087.5 L67 1093.5 L55 1100.38 L52 1101.38 L47.5 1102 L46 1103.5 L46.625 1106 L59.5 1140 L60.5 1144 L61.625 1147 L62 1148.5 L63 1149.5 L62.5 1150 L61.25 1150.25 L60.75 1151.75 L59 1152.38 M56.5 1144 L57 1143.5 L56.625 1142 L43.5 1108 L42.75 1105.25 L38.25 1103.75 L37.625 1102 L37.625 1099 L39.5 1096 L42.5 1092 L44.25 1089.25 L49 1087.75 L54.5 1087 L56.5 1085 L58 1084.5 L60 1083.5 L61.5 1083 L65.5 1079 L68 1078.38 L78 1074.5 L80.5 1074 L81.5 1075 L83.5 1073 L85.5 1072 L88.5 1070 L90.75 1068.75 L91 1066.5 L88 1063.5 L88 1062.5 L79.5 1054 L78 1053.5 L74 1051.63 L71.5 1051 L69.5 1049 L67 1048.38 L62 1046.5 L54 1044.5 L49 1043.75 L34 1043.75 L29 1044.75 L27 1045.5 L19 1049.5 L13.5 1053 L10 1056.5 L-1.5 1071 L-2.5 1073 L-5.375 1080 L-9.5 1097 L-14 1125.5 L-13 1126 L-13 1122.5 L-11.5 1121 L-6.5 1118 L-5 1119.5 L-4.5 1123 L-4.75 1129 L-4 1133.5 L-3 1134.5 L-4 1135.5 L-4 1144.5 L-3.5 1145 L-1.5 1143 L-0.25 1142.75 L4.5 1136 L10.5 1125 L11 1123.5 L13 1121.5 L13.625 1119 L14.375 1117 L15 1113.5 L17.5 1111 L20 1110.38 L22.5 1111 L24.75 1112.25 L26 1115.5 L29.5 1119 L33.75 1121.25 L34 1122.5 L54.5 1143 L56.5 1144 "/></g><g><path fill="#000000" fill-rule="evenodd" d="M-170.5 1158 L-171.5 1157 L-172.5 1158 L-174.5 1158 L-177 1155.5 L-177 1152.5 L-178 1151.5 L-177 1150.5 L-178 1149.5 L-178 1148.5 L-179.5 1147 L-182.5 1147 L-184 1145.5 L-184 1144.5 L-185.5 1143 L-187.75 1142.75 L-188 1141.5 L-189.5 1140 L-191.5 1140 L-194 1137.5 L-194 1136.5 L-195.5 1135 L-198 1135.63 L-200 1135.5 L-205 1132.63 L-208 1131.63 L-213.5 1131 L-214.5 1130 L-216.5 1132 L-219 1132.5 L-226 1135.38 L-233 1137.5 L-236.5 1138 L-239.5 1141 L-241.5 1142 L-244.5 1144 L-252 1149.5 L-253.5 1150 L-256 1152.5 L-256.25 1153.75 L-257.5 1154 L-259 1155.5 L-266 1164.5 L-269 1167.5 L-269 1169.5 L-272.5 1173 L-274.5 1172 L-276.75 1171.25 L-277.25 1172.75 L-278.5 1173 L-282 1169.5 L-281.25 1163 L-281.5 1161 L-289.25 1140.25 L-292.5 1140 L-294 1138.5 L-294.625 1134 L-295.625 1131 L-298.5 1124 L-299 1121.5 L-300 1120.5 L-298 1118.5 L-299.25 1114 L-299.5 1103 L-303.5 1093 L-314.5 1065 L-320.5 1033 L-322 1015.5 L-324 1013.5 L-323.875 1009.25 L-322.5 1009 L-321.5 1008 L-318 1011.5 L-317.5 1014 L-315.5 1019 L-300 1048.5 L-286.5 1069 L-259.5 1102 L-257.75 1104.88 L-253.5 1105 L-251 1102.5 L-250.5 1101 L-245.5 1090 L-229.5 1021 L-227.5 1015 L-227 1012.5 L-226 1011.5 L-228 1009.5 L-228 1005.5 L-226.5 1004 L-222.5 1004 L-220 1006.5 L-220 1010.5 L-222 1012.5 L-221.375 1026 L-211 1086.5 L-211 1087 L-210 1086.5 L-206.5 1071 L-192.5 1023 L-188.5 1013 L-181.625 1000 L-176.75 988 L-176 981.5 L-174.5 980 L-171.5 980 L-169 982.5 L-169.25 984 L-169.5 990 L-163.5 1022 L-166.5 1128 L-170 1149.5 L-168 1151.5 L-168 1155.5 L-170.5 1158 M-173.125 1144.75 L-169.625 1123 L-165.625 1037 L-171.5 998 L-173 989.5 L-174 989 L-174 989.5 L-174.625 992 L-185.5 1015 L-189.5 1025 L-206.5 1086 L-209.5 1094 L-210 1095.5 L-211.5 1097 L-214 1096.75 L-214.5 1086 L-224.5 1029 L-225 1020.5 L-226 1020 L-226 1020.5 L-242.5 1092 L-248.375 1105 L-249.25 1107.75 L-254 1109.5 L-257 1109.38 L-258.5 1109 L-260 1107.5 L-262 1104.5 L-289 1071.5 L-301 1053.5 L-316.5 1025 L-317 1023.5 L-318 1023 L-318 1023.5 L-314.5 1050 L-310.5 1066 L-300.5 1091 L-296.5 1101 L-290.5 1121 L-290.25 1123.75 L-291.75 1124.25 L-292 1127.5 L-290.5 1129 L-289.5 1129 L-288 1130.5 L-287.375 1135 L-279.375 1157 L-279 1158.5 L-277.5 1160 L-275 1158.5 L-271.5 1156 L-269.25 1154.75 L-268 1151.5 L-266.5 1150 L-265.5 1150 L-264 1148.5 L-263.75 1147.25 L-262.5 1147 L-261 1145.5 L-259 1141.5 L-255.5 1138 L-242 1127.5 L-239 1125.63 L-236.5 1125 L-234.5 1123 L-223 1118.63 L-220.5 1118 L-219.5 1119 L-218.5 1118 L-217.25 1118.25 L-216.75 1119.88 L-210 1120.63 L-204.25 1122.25 L-203.75 1123.75 L-199 1125.38 L-196.5 1126 L-195 1127.5 L-194.75 1129.75 L-190.5 1132 L-187 1135.5 L-186.75 1136.75 L-184.5 1137 L-182.5 1139 L-178.5 1140 L-177 1141.5 L-178 1142.5 L-175.5 1145 L-173.125 1144.75 "/></g><g><path fill="#000000" fill-rule="evenodd" d="M-313.25 909.875 L-317.75 909.875 L-318 906.5 L-316.5 905 L-314.25 905.25 L-313.625 907 L-313.25 909.875 "/></g><g><path fill="#000000" fill-rule="evenodd" d="M55.75 871.75 L52.5 872 L50.5 870 L47.5 870 L46 868.5 L46 865.5 L49 862.5 L55.625 819 L57.5 813 L57.375 807 L58 803.5 L60.5 801 L62.5 801 L63.5 800 L64.5 801 L66.5 801 L69 803.5 L69.25 806 L80 806.875 L94.5 807 L95.5 808 L96.5 807 L103.5 808 L105 809.5 L105.375 811 L105.375 815 L105 816.5 L103.5 818 L99.5 819 L98 820.5 L98 821.5 L91.5 828 L88.5 830 L84.5 833 L82.5 834 L78 838.5 L76 841.5 L66 854.5 L60 863.5 L59 865.5 L57 867.5 L55.75 871.75 M53.5 866 L56 863.5 L57 861.5 L63.5 852 L76 835.5 L79.5 832 L82 830.5 L86 827.5 L88.5 826 L95 819.5 L94.75 818.125 L68.5 818 L66.5 816 L64.5 816 L63.5 815 L62 816.5 L61.375 819 L59.5 824 L57.5 832 L52.25 863.5 L53.5 866 "/></g><g><path fill="#000000" fill-rule="evenodd" d="M247.5 945 L243.5 944 L240 940.5 L239 938.5 L234 931.5 L220.625 906 L212.5 886 L206.5 873 L203.75 868.25 L200 870.5 L196 873.375 L193.5 874 L189.5 878 L187 879.5 L178.5 886 L169 892.5 L152.5 904 L137.5 912 L132 915.5 L127.5 918 L120.5 923 L118.5 924 L115.5 927 L113.5 927 L111.5 929 L110.5 929 L108.5 931 L101.25 931.875 L100.75 930.25 L99.5 930 L97 927.5 L96 921.5 L98.5 919 L99.75 918.75 L100.25 917.25 L104.5 915 L107 912.5 L107.5 911 L131 870.5 L134 866.5 L136 863.5 L140.5 859 L141.75 858.75 L144 854.5 L146.5 852 L147.75 851.75 L148.25 850.25 L149.5 850 L152 847.5 L152 846.5 L154 844.5 L155 839.5 L157.5 837 L158.5 837 L166 829.5 L166.5 828 L167.375 826 L168.375 823 L169 818.5 L163.5 813 L162 812.5 L151 807.375 L149 807.5 L147 808.25 L139.5 809 L137 806.5 L138 798.5 L140.5 796 L141.75 795.75 L142.25 794.25 L144 793.5 L154 789.5 L170 785.625 L181 785.75 L185 786.625 L195 791.5 L196.5 792 L199 794.5 L202.5 800 L203.25 801.75 L206.5 802 L208 803.5 L208.625 807 L210.375 812 L212 820.5 L213.5 822 L215 820.5 L215 819.5 L219.5 815 L221.5 814 L227 810.5 L234 807.5 L280 798.25 L282.5 799 L284.5 800 L287 802.5 L286 803.5 L286.5 804 L287.5 804 L289 805.5 L288 806.5 L288 807.5 L286.5 809 L284.25 809.25 L284 810.5 L280.5 814 L278 814.625 L273.25 817.25 L257 835.5 L254 839.5 L241.5 852 L239.5 852 L239 852.5 L240 853.5 L240 855.5 L241 856.5 L240 857.5 L239 860.5 L237 862.5 L236.375 866 L234.625 871 L234.5 876 L248.5 938 L249 943.5 L247.5 945 M243.5 937 L244 936.5 L243.5 931 L232.5 884 L230.75 874 L230.75 860 L232.5 853 L232.5 847 L233.625 844 L234 842.5 L238.5 838 L239.5 838 L241 836.5 L241 835.5 L246.5 830 L247.5 830 L250 827.5 L251.5 825 L267.5 806 L269 803.5 L268.5 803 L267.5 804 L262 804.5 L254 806.5 L248 807.5 L236 810.5 L233 811.625 L222.5 817 L217 822.5 L216.5 824 L211.5 833 L211 834.5 L208.5 837 L204.25 835.75 L204.5 826 L205 824.5 L208 821.5 L207.375 815 L205.75 809.25 L201.125 810.75 L200 801.5 L198 799.5 L198 798.5 L196.5 797 L193.5 797 L191.5 795 L188.5 794 L187.5 793 L186.5 794 L182.5 794 L180.5 796 L178 796.625 L158 804.625 L156.5 805 L156 806 L156.5 806 L158 806.5 L166.5 811 L171 815.5 L171.25 817 L171.375 827 L170.375 831 L170.5 833 L169.5 836 L168 838.5 L166 840.5 L166 842.5 L164 844.5 L164 845.5 L162.5 847 L161.5 847 L159.5 849 L155.5 848 L154 849.5 L154 850.5 L151.5 853 L150.5 853 L146 857.5 L143.75 861.75 L142.5 862 L138 866.5 L136.5 869 L134 872.5 L113 908.5 L112 909.5 L112.5 910 L115 908.5 L122.5 903 L146.5 889 L164 876.5 L171 872.5 L184 863.625 L191 860.5 L193 859.875 L205 859.875 L206.75 860.25 L207.375 862 L207.5 868 L210.5 873 L215.5 884 L223.625 904 L237 930 L243.5 937 "/></g><g><path fill="#000000" fill-rule="evenodd" d="M-110 818.5 L-114.5 818 L-115.5 819 L-116.5 818 L-120.5 817 L-123 814.5 L-124.5 805 L-124.5 800 L-122 787.5 L-120 785.5 L-119.5 784 L-118.5 782 L-118 780.5 L-116.5 779 L-114 777.5 L-105 770.5 L-103 769.625 L-99 768.625 L-90 768.5 L-79.5 770 L-77.5 772 L-75.5 772 L-73.5 774 L-66.25 776.25 L-66 777.5 L-67 778.5 L-66 779.5 L-66.25 781.75 L-67.75 782.25 L-68 783.5 L-67 784.5 L-67.5 785 L-71.5 785 L-74.5 788 L-76 788.5 L-79 790.5 L-83 793.5 L-88.5 797 L-101.5 808 L-102 808.5 L-101 809.5 L-101 812.5 L-105.5 817 L-107 817.375 L-110 818.5 M-114 813.25 L-111.5 812 L-91 794.5 L-88.5 793 L-75.5 784 L-73.5 783 L-72 781.5 L-74.5 779 L-76 778.625 L-79 778.625 L-81 779.25 L-89 779.5 L-91.5 780 L-93.5 782 L-95 782.5 L-108 789.5 L-109.5 790 L-116 796.5 L-118 800.5 L-120 802.5 L-120.625 807 L-120.5 810 L-120 812.5 L-118.5 814 L-114 813.25 M-107 814 L-107 813 L-108 813 L-108 814 L-107 814 "/></g><g><path fill="#000000" fill-rule="evenodd" d="M-217 941.5 L-219 942.375 L-230 946.5 L-238 948.5 L-243 950.375 L-258 954.25 L-265 954.5 L-271 953.5 L-275 952.375 L-279 950.625 L-281.5 950 L-291 940.5 L-292 938.5 L-300.5 925 L-305.5 915 L-306 913.5 L-309.5 910 L-310.75 909.75 L-318.5 890 L-319 886.5 L-320 885.5 L-319 884.5 L-318.625 883 L-318.25 879.25 L-319.875 878.75 L-318.5 866 L-316.375 858 L-311.625 847 L-311 844.5 L-309 842.5 L-308.5 841 L-294 814.5 L-288 805.5 L-285 801.5 L-283 798.5 L-279.5 795 L-273 790.5 L-271 789.5 L-259 781.5 L-242 772.625 L-237 770.5 L-226 765.5 L-224.5 765 L-221.5 762 L-217 761.375 L-214 761.5 L-211 762.625 L-209.5 763 L-208.5 762 L-207.5 763 L-206.25 763.25 L-206 766.5 L-205 767.5 L-206 768.5 L-207 772.5 L-210 775.5 L-209 776.5 L-209 777.5 L-212.5 781 L-213.75 781.25 L-214.5 783 L-215.5 785 L-216 786.5 L-228.5 799 L-229.5 799 L-231 800.5 L-233.5 804 L-245 818.5 L-263 845.5 L-269.5 854 L-271.25 856.75 L-272.75 857.25 L-274 860.5 L-273.5 861 L-272.5 860 L-268 859.25 L-263.5 858 L-261.5 856 L-222 847.75 L-196.5 846 L-194.5 844 L-189.25 844.125 L-187.625 848 L-187 851.5 L-188.5 853 L-189.75 853.25 L-190 854.5 L-197.5 862 L-200 863.5 L-231.5 889 L-234.5 891 L-243 899.5 L-242.5 900 L-230.5 900 L-229.5 901 L-228.5 900 L-194 899.75 L-189 900.5 L-184 901.75 L-182 902.5 L-179.5 904 L-177 904.5 L-175.5 904 L-174 905.5 L-174 906.5 L-175 907.5 L-173 909.5 L-175.5 914 L-176 915.5 L-186.5 926 L-217 941.5 M-266 940.25 L-223 927.5 L-220.5 927 L-218.5 925 L-217 924.5 L-202 917.5 L-189 912.375 L-187.5 912 L-183.5 908 L-181.5 908 L-181 907.5 L-182.5 906 L-186 904.75 L-198 902.625 L-248 903.75 L-253 905.375 L-257.5 906 L-260 903.5 L-260 902.5 L-261 901.5 L-260 900.5 L-261 899.5 L-259 895.5 L-254.5 891 L-253 890.5 L-246.5 887 L-239 879.5 L-239 878.5 L-236.5 876 L-235 875.5 L-232.5 874 L-216 859.5 L-213.5 858 L-209.5 855 L-206.5 853 L-204 850.5 L-204.5 850 L-231 852.5 L-255 858.5 L-259.5 859 L-261.5 861 L-264 861.625 L-268 863.25 L-278.75 865.125 L-279 866.5 L-280.5 868 L-281.5 868 L-282.5 869 L-283.5 868 L-284.5 868 L-286 866.5 L-285 857.5 L-280 852.5 L-280 850.5 L-278 848.5 L-276 844.5 L-274.5 843 L-273.5 843 L-272 841.5 L-265 832.5 L-248.625 805 L-248 802.5 L-239 793.5 L-239 791.5 L-236 788.5 L-236 787.5 L-233.5 785 L-229.25 782.75 L-229 781.5 L-225.5 778 L-221.5 777 L-220 775.5 L-220 772.5 L-214 766.5 L-214.25 765.125 L-219.5 765 L-221.5 767 L-226 769.5 L-254 782.5 L-262 787.5 L-269 792.375 L-271.5 793 L-275.5 797 L-276.5 797 L-281 801.5 L-282.5 804 L-285.5 808 L-306.5 844 L-313.375 860 L-315.625 869 L-314.25 888 L-313 894.5 L-312 895 L-311.75 891.25 L-310.5 891 L-309 892.5 L-308.5 897 L-307.5 901 L-297.5 923 L-292 931.5 L-291 933.5 L-288.5 936 L-282 939.5 L-280 940.125 L-266 940.25 "/></g><g><path fill="#000000" fill-rule="evenodd" d="M228 672 L227 672 L227 671 L228 671 L228 672 "/></g><g><path fill="#000000" fill-rule="evenodd" d="M104.5 781 L101.5 783 L98.5 785 L96.5 786 L94.5 788 L91.25 788.25 L91 789.5 L89.5 791 L83.5 790 L80 786.5 L78.5 784 L76 780.5 L57.5 749 L48.625 726 L45.75 716.25 L43.5 716 L43 715.5 L44 714.5 L44 711.5 L46.5 709 L48 709.25 L56 711.375 L67 715.5 L70 716.25 L121 717.875 L124 718.625 L126 719.375 L128.5 720 L130.5 722 L134.75 724.25 L135 725.5 L140 730.5 L139 731.5 L138.5 735 L135 747.5 L133 749.5 L132.5 751 L129 757.5 L127 760.5 L126 762.5 L116.5 772 L104.5 781 M51 720 L51 719 L50 719 L50 720 L51 720 M104.5 777 L108 774.5 L110.5 773 L124 759.5 L127.5 754 L131.5 746 L133.5 741 L134.375 738 L134.5 733 L133.75 729.25 L130.5 728 L129.5 727 L128.5 728 L127.5 728 L125.5 726 L105 729.625 L102 730.625 L100 730.75 L91 729.375 L85 729.75 L70 726.375 L63.5 723 L60.5 720 L57.5 720 L56.5 719 L55.5 720 L54.5 720 L52.5 722 L51.5 721 L51 721.5 L51.5 724 L60.5 747 L78.5 778 L82 783.5 L85.5 787 L86.5 787 L87.5 788 L88 787.5 L88.125 781.25 L89.5 781 L91 782.5 L91.25 783.75 L94.5 784 L96.5 782 L98.5 781 L101.5 779 L104.5 777 "/></g><g><path fill="#000000" fill-rule="evenodd" d="M-112 937.375 L-116.5 937 L-119 934.5 L-118.75 932.25 L-117.5 932 L-117 931.5 L-118 930.5 L-118 929.5 L-117 928.5 L-118 927.5 L-118.5 924 L-126.5 904 L-127.5 902 L-128.25 900.25 L-129.5 900 L-131.5 898 L-132 898.5 L-132.25 900.75 L-135.5 901 L-138 898.5 L-139 892.5 L-136 889.5 L-135.75 888.125 L-131.25 888.125 L-131 889.5 L-129.5 891 L-128.25 891.25 L-127.375 894 L-120.625 908 L-119.5 912 L-115.625 922 L-114.75 925.75 L-113.25 925.75 L-112.5 924 L-108.5 915 L-105.5 905 L-100 862.5 L-96.5 859 L-92.5 860 L-91.5 861 L-90.5 860 L-82 864.375 L-73 867.625 L-71 868.5 L-69.5 869 L-67.5 871 L-65 871.625 L-53 876.5 L-43.5 881 L-41 882.5 L-29 887.375 L-22.5 888 L-22 887.5 L-23 886.5 L-24 884.5 L-36.5 869 L-62.5 840 L-65 836.5 L-68.5 833 L-69.5 834 L-72.5 834 L-76 830.5 L-75.625 829 L-74.5 826 L-73.375 822 L-72.5 820 L-72 818.5 L-70 816.5 L-70 814.5 L-65.5 810 L-60 806.5 L-58.5 806 L-53 800.5 L-47 792.5 L-45.5 790 L-45 788.5 L-42.5 786 L-29.5 775 L-26.5 772 L-23.25 771.75 L-22.5 770 L-21.5 768 L-17 761.5 L-16 759.5 L-12 755.5 L-13 754.5 L-13 753.5 L-17.5 749 L-19 748.5 L-36 739.625 L-42 737.5 L-47 737.75 L-57 736.5 L-82 737.625 L-93 739.5 L-104 742.625 L-111 745.5 L-115.5 748 L-121.5 752 L-123.5 753 L-125 754.5 L-136.5 768 L-138.5 771 L-139 772.5 L-141 774.5 L-141.625 777 L-151.375 802 L-153.25 810 L-152.5 841 L-144.5 888 L-141.75 898.75 L-136.5 902 L-135 903.5 L-134 907.5 L-136.5 910 L-137.75 910.25 L-138 912.5 L-137 913.5 L-138 914.5 L-138.25 915.75 L-141.5 916 L-144 913.5 L-144 912.5 L-145 911.5 L-144 910.5 L-144 907.5 L-143 906.5 L-144 905.5 L-144.5 902 L-157.375 829 L-157.5 816 L-155.5 803 L-145.5 777 L-141.5 769 L-139.5 766 L-128 752.5 L-125.5 750 L-123.5 749 L-115 743.5 L-106 739.625 L-92 735.625 L-78 733.75 L-41 734.75 L-37 735.5 L-32 737.5 L-19.5 744 L-16.5 746 L-14.5 747 L-11 750.5 L-11 751.5 L-7 755.5 L-7 760.5 L-8 761.5 L-7 762.5 L-8 763.5 L-8.375 765 L-9.625 768 L-15 777.5 L-17 779.5 L-17 781.5 L-31.5 796 L-35.5 798 L-38 800.5 L-40.5 804 L-45.5 810 L-48 813.5 L-55.5 821 L-62.75 826.25 L-63.25 827.75 L-64.75 828.25 L-65 829.5 L-66 830.5 L-62 834.5 L-60 837.5 L-27.5 874 L-21 882.5 L-16.75 889.75 L-15.25 890.25 L-15 891.5 L-14 892.5 L-15 893.5 L-14 894.5 L-15.5 896 L-17 896.5 L-19 897.375 L-22 897.375 L-24 896.5 L-32 891.5 L-33.5 891 L-34.5 890 L-35.5 891 L-38 890.375 L-47 883.5 L-52 881.5 L-62 878.5 L-67 876.5 L-71 874.625 L-77.5 873 L-79.5 871 L-82.5 870 L-84.5 868 L-93.75 869.125 L-95.375 874 L-101.5 910 L-105.5 924 L-109.5 934 L-110.25 936.75 L-112 937.375 M-139 908 L-139 905.5 L-140 905 L-140 907.5 L-139 908 "/></g><g><path fill="#000000" fill-rule="evenodd" d="M168 1261.5 L153 1269.5 L151.5 1270 L149.5 1272 L147.5 1272 L145.5 1274 L143 1274.63 L136 1277.5 L119 1284.5 L116.5 1285 L114.5 1287 L108 1288.63 L106 1289.38 L102 1290.5 L94 1293.5 L63 1301.5 L26.5 1307 L25.5 1308 L24.5 1307 L23.5 1308 L17.5 1308 L16.5 1309 L15.5 1308 L10.5 1308 L9.5 1309 L8.5 1308 L7.5 1309 L6.5 1309 L5.5 1308 L4.5 1309 L-28.5 1309 L-29.5 1308 L-30.5 1309 L-31.5 1308 L-40.5 1308 L-41.5 1307 L-42.5 1308 L-53.5 1307 L-54.5 1306 L-55.5 1307 L-56.5 1306 L-69.5 1305 L-70.5 1304 L-71.5 1305 L-73 1304.63 L-76.5 1304 L-77.5 1303 L-78.5 1304 L-79.5 1303 L-98 1298.5 L-138 1286.5 L-178 1270.5 L-180 1269.5 L-181.5 1269 L-183.5 1267 L-185.5 1267 L-187.5 1265 L-189 1264.5 L-220 1245.5 L-248 1224.5 L-250.75 1222.75 L-251.25 1221.25 L-255 1218.5 L-274.75 1200.75 L-275.25 1199.25 L-276.75 1198.75 L-309 1160.5 L-319 1146.5 L-335.375 1119 L-336 1116.5 L-338 1114.5 L-338.5 1113 L-357.375 1072 L-360 1063.5 L-362 1061.5 L-362.5 1058 L-373.5 1017 L-374 1011.5 L-375 1010.5 L-374 1009.5 L-375 1008.5 L-376 1000.5 L-377 999.5 L-376 998.5 L-377 997.5 L-381 968.5 L-380 967.5 L-381 966.5 L-382 928.5 L-381 927.5 L-382 926.5 L-381 911.5 L-380 910.5 L-381 909.5 L-380 908.5 L-379 892.5 L-378 891.5 L-379 890.5 L-378 889.5 L-378 885.5 L-377 884.5 L-378 883.5 L-377 882.5 L-376.5 877 L-374.5 866 L-366.375 833 L-357.5 807 L-357 804.5 L-355 802.5 L-354.625 801 L-351.625 794 L-351 791.5 L-349 789.5 L-348 785.5 L-346 783.5 L-345.375 781 L-340.5 771 L-333.625 759 L-333 756.5 L-331 754.5 L-330.5 753 L-320.5 737 L-319.75 735.25 L-318.25 734.75 L-317.375 732 L-313 725.5 L-307.75 718.25 L-306.25 717.75 L-306 715.5 L-303.5 713 L-302.25 712.75 L-301 710.5 L-299 707.5 L-298 705.5 L-296.5 704 L-295.25 703.75 L-290.75 697.25 L-289.25 696.75 L-275 680.5 L-272.5 678 L-271.5 678 L-270 676.5 L-269.75 675.25 L-255.25 662.75 L-254.75 661.25 L-251 658.5 L-231.5 643 L-214.5 631 L-207.5 627 L-204.5 624 L-202.5 624 L-200.5 622 L-199.5 622 L-196.5 619 L-194.5 619 L-192.5 617 L-190.5 617 L-188.5 615 L-185.5 614 L-183.5 612 L-181.5 612 L-179.5 610 L-178.5 610 L-176.5 608 L-174 607.375 L-130 589.75 L-123 587.625 L-120 586.5 L-65 574.5 L-59.5 574 L-58.5 573 L-57.5 574 L-56.5 573 L-55.5 574 L-54.5 573 L-51.5 573 L-50.5 572 L-49.5 573 L-48.5 572 L-36.5 571 L-35.5 572 L-34.5 571 L-25.5 571 L-24.5 570 L-23.5 571 L-22.5 570 L-19.5 570 L-18.5 571 L-17.5 570 L-16.5 570 L-15.5 571 L-14.5 570 L-11.5 570 L-10.5 571 L-9.5 570 L-5 570.75 L11.5 571 L12.5 570 L13.5 571 L17 571.625 L18.5 572 L19.5 571 L20.5 572 L27.5 572 L28.5 573 L29.5 572 L30.5 573 L31.5 572 L32.5 573 L34.5 573 L35.5 572 L37.5 574 L41.5 574 L42.5 573 L44.5 575 L52.5 576 L53.5 575 L54.5 576 L58.5 577 L59.5 576 L61.5 578 L63.5 578 L64.5 577 L66.5 579 L68.5 579 L69.5 578 L71.5 580 L72.5 580 L73.5 579 L74.5 580 L75.5 580 L76.5 581 L77.5 580 L78.5 581 L81.5 582 L82.5 583 L83.5 582 L84.5 583 L87 583.625 L89 584.375 L97 586.625 L104.5 589 L105.5 590 L106.5 589 L107.5 590 L111 590.625 L115.5 593 L116.5 592 L118.5 594 L124.5 595 L127.5 598 L128.5 597 L129.5 598 L132 598.5 L137 600.5 L158 610.5 L182.5 624 L200.5 636 L242.5 670 L265 692.5 L285.5 719 L301.5 743 L304 747.5 L309.5 756 L310.375 758 L311 760.5 L312.5 762 L313.5 762 L314 762.5 L313 763.5 L313.5 764 L314.5 764 L315 764.5 L314 765.5 L314.5 766 L315.75 766.25 L317 769.5 L318 770.5 L317 771.5 L317.5 772 L318.5 772 L320 773.5 L320 775.5 L322 777.5 L322.5 779 L323.5 781 L324 782.5 L325 783.5 L324 784.5 L326 786.5 L326.375 788 L328.5 793 L329.5 795 L330 796.5 L329 797.5 L329.5 798 L330.75 798.25 L332 802.5 L333 803.5 L332 804.5 L334 806.5 L335 809.5 L334 810.5 L334.5 811 L335.75 811.25 L336.375 813 L337 816.5 L338 817.5 L337 818.5 L339 820.5 L340 823.5 L339 824.5 L340 825.5 L340 826.5 L342 828.5 L341 829.5 L342 830.5 L343 834.5 L344 835.5 L343 836.5 L344 837.5 L344 839.5 L345 840.5 L344 841.5 L345 842.5 L346 846.5 L347 847.5 L346 848.5 L349.5 862 L355 892.5 L356 893.5 L355 894.5 L356 895.5 L355 896.5 L356 897.5 L355 898.5 L356 899.5 L357 903.5 L356 904.5 L357 905.5 L357 906.5 L356 907.5 L357 908.5 L357 912.5 L358 913.5 L357 914.5 L358 915.5 L357 916.5 L358 917.5 L357 918.5 L358 919.5 L358 944.5 L357 945.5 L358 946.5 L357.75 963.75 L356.25 964.25 L356 965.5 L357 966.5 L356 967.5 L355.375 979 L352 1001.5 L353 1002.5 L352 1003.5 L349.5 1018 L346.5 1031 L345.5 1034 L345 1036.5 L344 1037.5 L345 1038.5 L344 1039.5 L343 1046.5 L341 1048.5 L340 1054.5 L338 1056.5 L339 1057.5 L338 1058.5 L338 1059.5 L337 1060.5 L338 1061.5 L337.5 1062 L336.5 1062 L336 1062.5 L337 1063.5 L336 1064.5 L335.75 1067.75 L334.25 1068.25 L334 1069.5 L335 1070.5 L334.5 1071 L333.5 1071 L333 1071.5 L334 1072.5 L333.5 1073 L332.5 1073 L332 1073.5 L333 1074.5 L331 1076.5 L330.375 1080 L329.625 1082 L329 1084.5 L327 1086.5 L326.375 1090 L316.5 1110 L304 1132.5 L291.5 1151 L285 1159.5 L283 1162.5 L281.75 1164.75 L280.25 1165.25 L279.5 1167 L258.75 1191.75 L257.5 1192 L255 1194.5 L255 1195.5 L239.5 1211 L209.5 1236 L196 1245.5 L193.5 1247 L191.5 1249 L189.5 1249 L187.5 1251 L185.5 1252 L182.5 1254 L180.5 1255 L178.5 1257 L177.5 1256 L177 1256.5 L177 1257.5 L175.5 1259 L172 1259.63 L168 1261.5 M168.5 1252 L187 1240.5 L204 1228.5 L241.75 1196.75 L242 1195.5 L245.5 1192 L246.5 1192 L248 1190.5 L256.25 1180.25 L257.75 1179.75 L272.5 1161 L274.5 1158 L283.5 1146 L296 1126.5 L307.5 1106 L317.5 1085 L322.375 1073 L330.5 1051 L340.5 1013 L342.5 1002 L347 960.5 L348 959.5 L347 958.5 L347 905.5 L346 904.5 L347 903.5 L346 902.5 L345.5 894 L337.375 852 L324.625 812 L320.625 801 L320 798.5 L318 796.5 L317.375 793 L310.5 778 L309.75 776.25 L308.5 776 L308 775.5 L309 774.5 L308 773.5 L307.75 772.25 L306.25 771.75 L304.625 768 L303.75 765.25 L302.25 764.75 L301.75 761.25 L300.25 760.75 L300 759.5 L298 757.5 L299 756.5 L297.5 755 L296.25 754.75 L295 751.5 L293 749.5 L294 748.5 L293.5 748 L292.5 748 L291 746.5 L287 739.5 L269.75 715.25 L268.25 714.75 L266.5 712 L253.75 696.25 L252.25 695.75 L252 694.5 L240.5 683 L239.5 683 L238 681.5 L238 680.5 L235.5 678 L234.25 677.75 L233.75 676.25 L232.5 676 L230 673.5 L230 672.5 L227.5 670 L225.5 670 L225 669.5 L226 668.5 L224.5 667 L202.5 650 L200.25 648.75 L199.75 647.25 L197.5 646 L194 643.5 L157 620.5 L147 615.625 L144.5 615 L142.5 613 L141.5 613 L140.5 614 L140 613.5 L140 612.5 L138.5 611 L136.5 611 L135.5 610 L134.5 611 L134 610.5 L133.75 609.25 L110 599.5 L70 587.625 L28 580.5 L18.5 580 L17.5 579 L16.5 580 L15.5 579 L5.5 579 L4.5 578 L3.5 579 L1.5 577 L0.5 578 L-5.5 577 L-6.5 578 L-7.5 577 L-8.5 578 L-13 577.25 L-25 577.375 L-37.5 579 L-38.5 578 L-39.5 579 L-51 579.5 L-85 584.5 L-123 594.5 L-159 608.5 L-164 610.625 L-213.5 638 L-230.5 650 L-250.5 666 L-253.5 668 L-255 669.5 L-255 670.5 L-256.5 672 L-264.5 678 L-266 679.5 L-266 680.5 L-269.5 684 L-270.75 684.25 L-286 701.5 L-304.5 725 L-321 749.5 L-333.5 772 L-335.625 777 L-336 778.5 L-338 780.5 L-338 782.5 L-340 784.5 L-340.625 787 L-342.5 791 L-358.375 833 L-363.5 851 L-367.5 871 L-368.5 875 L-373 910.5 L-374 911.5 L-373 912.5 L-374 913.5 L-374 936.5 L-375 937.5 L-374 938.5 L-374 945.5 L-375 946.5 L-374 947.5 L-373.375 966 L-368.5 1005 L-356.375 1051 L-341.5 1089 L-339.375 1094 L-325.5 1121 L-314 1138.5 L-302.5 1155 L-272 1191.5 L-268.5 1195 L-267.25 1195.25 L-266.75 1196.75 L-265.25 1197.25 L-264.75 1198.75 L-263.5 1199 L-262 1200.5 L-262 1201.5 L-259.5 1204 L-258.5 1204 L-257 1205.5 L-257 1206.5 L-255.5 1208 L-254.25 1208.25 L-254 1209.5 L-252.5 1211 L-249.5 1213 L-236 1224.5 L-233 1226.5 L-231.25 1227.25 L-230.75 1228.75 L-228 1230.5 L-224 1233.5 L-198.5 1250 L-174 1263.5 L-167 1266.5 L-165.5 1267 L-163.5 1269 L-161.5 1269 L-159.5 1271 L-157 1271.5 L-140 1278.38 L-136 1279.5 L-128 1282.5 L-92 1292.5 L-48.5 1300 L-47.5 1299 L-46.5 1300 L-37.5 1300 L-36.5 1301 L-35.5 1300 L-32.5 1300 L-31.5 1301 L-30.5 1300 L-29.5 1300 L-28.5 1301 L-27.5 1300 L-26.5 1301 L-25.5 1300 L-24.5 1300 L-22.5 1302 L-21.5 1301 L-19.5 1301 L-18.5 1302 L-17.5 1301 L-15.5 1301 L-14.5 1300 L-13.5 1301 L12.5 1300 L13.5 1299 L14.5 1300 L17.5 1299 L18.5 1300 L19.5 1299 L49 1295.5 L53 1294.5 L65 1292.5 L103 1281.63 L107 1280.5 L114 1277.5 L140 1266.63 L142.5 1266 L144.5 1264 L147 1263.38 L166 1253.5 L168.5 1252 "/></g>
</svg>