<svg width="1404" height="1872" viewBox="-702 0 1404 1872" xmlns="http://www.w3.org/2000/svg" xmlns:xlink="http://www.w3.org/1999/xlink" version="1.2" baseProfile="tiny"><title>Erix World</title>
<g><path fill="#000000" fill-rule="evenodd" d="M99 1147 L98 1147 L98 1146 L99 1146 L99 1147 "/></g><g><path fill="#000000" fill-rule="evenodd" d="M113 1123 L112 1123 L112 1122 L113 1122 L113 1123 "/></g><g><path fill="#000000" fill-rule="evenodd" d="M98 1120 L97 1120 L97 1119 L98 1119 L98 1120 "/></g><g><path fill="#000000" fill-rule="evenodd" d="M95 1119 L94 1119 L94 1118 L95 1118 L95 1119 "/></g><g><path fill="#000000" fill-rule="evenodd" d="M89 1118 L88 1118 L88 1117 L89 1117 L89 1118 "/></g><g><path fill="#000000" fill-rule="evenodd" d="M-123 1144 L-124 1144 L-124 1143 L-123 1143 L-123 1144 "/></g><g><path fill="#000000" fill-rule="evenodd" d="M-129 1143 L-129.5 1144 L-130 1143 L-129 1143 "/></g><g><path fill="#000000" fill-rule="evenodd" d="M-93.5 1143 L-95 1143 L-94.5 1142 L-93 1142 L-93.5 1143 "/></g><g><path fill="#000000" fill-rule="evenodd" d="M-100 1143 L-101 1143 L-101 1142 L-100 1142 L-100 1143 "/></g><g><path fill="#000000" fill-rule="evenodd" d="M-80 1121 L-80 1120.5 L-79.5 1120 L-79 1121 L-80 1121 "/></g><g><path fill="#000000" fill-rule="evenodd" d="M-153 1142 L-153.5 1143 L-154 1142 L-153 1142 "/></g><g><path fill="#000000" fill-rule="evenodd" d="M130 1067 L129 1067 L129 1066 L130 1066 L130 1067 "/></g><g><path fill="#000000" fill-rule="evenodd" d="M81 1117 L80 1117 L80 1116 L81 1116 L81 1117 "/></g><g><path fill="#000000" fill-rule="evenodd" d="M76 1095 L75 1095 L75 1094 L76 1094 L76 1095 "/></g><g><path fill="#000000" fill-rule="evenodd" d="M121.5 1069 L120 1069 L120.5 1068 L122 1068 L121.5 1069 "/></g><g><path fill="#000000" fill-rule="evenodd" d="M115 1068 L114 1068 L114 1067 L115 1067 L115 1068 "/></g><g><path fill="#000000" fill-rule="evenodd" d="M112 1067 L111 1067 L111 1066 L112 1066 L112 1067 "/></g><g><path fill="#000000" fill-rule="evenodd" d="M105 1066 L104 1066 L104 1065 L105 1065 L105 1066 "/></g><g><path fill="#000000" fill-rule="evenodd" d="M98 1062 L97.5 1063 L97 1062 L98 1062 "/></g><g><path fill="#000000" fill-rule="evenodd" d="M47 1117 L46 1117 L46 1116 L47 1116 L47 1117 "/></g><g><path fill="#000000" fill-rule="evenodd" d="M35 1116 L34 1116 L34 1115 L35 1115 L35 1116 "/></g><g><path fill="#000000" fill-rule="evenodd" d="M24 1108 L23 1108 L23 1107 L24 1107 L24 1108 "/></g><g><path fill="#000000" fill-rule="evenodd" d="M23 1107 L22 1107 L22 1106 L23 1106 L23 1107 "/></g><g><path fill="#000000" fill-rule="evenodd" d="M21 1104 L20 1104 L20 1103 L21 1103 L21 1104 "/></g><g><path fill="#000000" fill-rule="evenodd" d="M1 1078 L0 1078 L0 1077 L1 1077 L1 1078 "/></g><g><path fill="#000000" fill-rule="evenodd" d="M-53 1112 L-53.5 1112 L-54 1111.5 L-53 1111 L-53 1112 "/></g><g><path fill="#000000" fill-rule="evenodd" d="M-51 1109 L-52 1109 L-52 1108 L-51 1108 L-51 1109 "/></g><g><path fill="#000000" fill-rule="evenodd" d="M-49 1105 L-49 1104.5 L-48.5 1104 L-48 1105 L-49 1105 "/></g><g><path fill="#000000" fill-rule="evenodd" d="M-45 1102 L-46 1102 L-46 1101 L-45 1101 L-45 1102 "/></g><g><path fill="#000000" fill-rule="evenodd" d="M-38 1095 L-39 1095 L-39 1094 L-38 1094 L-38 1095 "/></g><g><path fill="#000000" fill-rule="evenodd" d="M-33 1090 L-34 1090 L-34 1089 L-33 1089 L-33 1090 "/></g><g><path fill="#000000" fill-rule="evenodd" d="M-24 1081 L-25 1081 L-25 1080 L-24 1080 L-24 1081 "/></g><g><path fill="#000000" fill-rule="evenodd" d="M-21 1077 L-22 1077 L-22 1076 L-21 1076 L-21 1077 "/></g><g><path fill="#000000" fill-rule="evenodd" d="M-20 1076 L-21 1076 L-21 1075 L-20 1075 L-20 1076 "/></g><g><path fill="#000000" fill-rule="evenodd" d="M-15 1073 L-16 1073 L-16 1072 L-15 1072 L-15 1073 "/></g><g><path fill="#000000" fill-rule="evenodd" d="M-48 1057 L-49 1057 L-49 1056 L-48 1056 L-48 1057 "/></g><g><path fill="#000000" fill-rule="evenodd" d="M-81 1084 L-82 1083 L-82 1082 L-81 1082.5 L-81 1084 "/></g><g><path fill="#000000" fill-rule="evenodd" d="M-105.5 1060 L-107 1060 L-106.5 1059 L-105 1059 L-105.5 1060 "/></g><g><path fill="#000000" fill-rule="evenodd" d="M137 1051 L136.5 1052 L136 1051 L137 1051 "/></g><g><path fill="#000000" fill-rule="evenodd" d="M155 1037 L154 1037 L154 1036 L155 1036 L155 1037 "/></g><g><path fill="#000000" fill-rule="evenodd" d="M161 1026 L162 1026.5 L161 1027 L161 1026 "/></g><g><path fill="#000000" fill-rule="evenodd" d="M128 1026 L127 1026 L127 1025 L128 1025 L128 1026 "/></g><g><path fill="#000000" fill-rule="evenodd" d="M143 1012 L142 1011 L142 1010 L143 1010.5 L143 1012 "/></g><g><path fill="#000000" fill-rule="evenodd" d="M146 1006 L145 1005 L145 1004 L146 1004.5 L146 1006 "/></g><g><path fill="#000000" fill-rule="evenodd" d="M147 1001 L146 1000.5 L146 998 L147 998.5 L147 1001 "/></g><g><path fill="#000000" fill-rule="evenodd" d="M146 992 L145 992 L145 991 L146 991 L146 992 "/></g><g><path fill="#000000" fill-rule="evenodd" d="M146 990 L145 990 L145 989 L146 989 L146 990 "/></g><g><path fill="#000000" fill-rule="evenodd" d="M114 1033 L113 1033 L113 1032 L114 1032 L114 1033 "/></g><g><path fill="#000000" fill-rule="evenodd" d="M103 1032 L102 1032 L102 1031 L103 1031 L103 1032 "/></g><g><path fill="#000000" fill-rule="evenodd" d="M64 1017 L64 1016 L64.5 1016 L65 1016.5 L65 1017 L64 1017 "/></g><g><path fill="#000000" fill-rule="evenodd" d="M88 1011 L87 1011 L87 1010 L88 1010 L88 1011 "/></g><g><path fill="#000000" fill-rule="evenodd" d="M-50 1036 L-50 1035.5 L-49.5 1035 L-49 1036 L-50 1036 "/></g><g><path fill="#000000" fill-rule="evenodd" d="M-37 1035 L-37 1034.5 L-36.5 1034 L-36 1035 L-37 1035 "/></g><g><path fill="#000000" fill-rule="evenodd" d="M-55 1035 L-56 1035 L-56 1034 L-55 1034 L-55 1035 "/></g><g><path fill="#000000" fill-rule="evenodd" d="M-62.5 1035 L-66 1035 L-65.5 1034 L-62 1034 L-62.5 1035 "/></g><g><path fill="#000000" fill-rule="evenodd" d="M-27 1034 L-27 1033.5 L-26.5 1033 L-26 1034 L-27 1034 "/></g><g><path fill="#000000" fill-rule="evenodd" d="M-69 1020 L-69.5 1021 L-70 1020 L-69 1020 "/></g><g><path fill="#000000" fill-rule="evenodd" d="M-65 1017 L-66 1017 L-66 1016 L-65 1016 L-65 1017 "/></g><g><path fill="#000000" fill-rule="evenodd" d="M-64 1016 L-65 1016 L-65 1015 L-64 1015 L-64 1016 "/></g><g><path fill="#000000" fill-rule="evenodd" d="M-54 1007 L-53 1007.5 L-54 1008 L-54 1007 "/></g><g><path fill="#000000" fill-rule="evenodd" d="M-15 991 L-15.75 990.75 L-15 989 L-15 991 "/></g><g><path fill="#000000" fill-rule="evenodd" d="M-102 1025 L-101 1025 L-101.5 1026 L-102 1025 "/></g><g><path fill="#000000" fill-rule="evenodd" d="M-74 1024 L-73 1024.5 L-74 1025 L-74 1024 "/></g><g><path fill="#000000" fill-rule="evenodd" d="M-101 1025 L-101 1024 L-100 1024 L-100 1024.5 L-100.5 1025 L-101 1025 "/></g><g><path fill="#000000" fill-rule="evenodd" d="M-99 1021 L-98 1021.5 L-99 1022 L-99 1021 "/></g><g><path fill="#000000" fill-rule="evenodd" d="M-90 1010 L-91 1010 L-91 1009 L-90 1009 L-90 1010 "/></g><g><path fill="#000000" fill-rule="evenodd" d="M-89 1009 L-90 1009 L-90 1008 L-89 1008 L-89 1009 "/></g><g><path fill="#000000" fill-rule="evenodd" d="M-85 1004 L-86 1004 L-86 1003 L-85 1003 L-85 1004 "/></g><g><path fill="#000000" fill-rule="evenodd" d="M145 984 L144 983.5 L144 981 L145 981.5 L145 984 "/></g><g><path fill="#000000" fill-rule="evenodd" d="M144 978 L143 977 L143 976 L144 976.5 L144 978 "/></g><g><path fill="#000000" fill-rule="evenodd" d="M144 974 L143 973 L143 972 L144 972.5 L144 974 "/></g><g><path fill="#000000" fill-rule="evenodd" d="M144 971 L143 971 L143 970 L144 970 L144 971 "/></g><g><path fill="#000000" fill-rule="evenodd" d="M143 970 L142 969.5 L142 966 L143 966.5 L143 970 "/></g><g><path fill="#000000" fill-rule="evenodd" d="M141 959 L140 959 L140 958 L141 958 L141 959 "/></g><g><path fill="#000000" fill-rule="evenodd" d="M167 950 L168 950.5 L167 951 L167 950 "/></g><g><path fill="#000000" fill-rule="evenodd" d="M71 926 L71 925 L72 925 L72 925.5 L71.5 926 L71 926 "/></g><g><path fill="#000000" fill-rule="evenodd" d="M4.5 978 L3 978 L3.5 977 L5 977 L4.5 978 "/></g><g><path fill="#000000" fill-rule="evenodd" d="M27 936 L26 936 L26 935 L27 935 L27 936 "/></g><g><path fill="#000000" fill-rule="evenodd" d="M46 929 L45 929 L45 928 L46 928 L46 929 "/></g><g><path fill="#000000" fill-rule="evenodd" d="M-33 972 L-34 972 L-34 971 L-33 971 L-33 972 "/></g><g><path fill="#000000" fill-rule="evenodd" d="M-41 944 L-42 944 L-42 943 L-41 943 L-41 944 "/></g><g><path fill="#000000" fill-rule="evenodd" d="M-72 986 L-70.5 986 L-70 986.5 L-70.5 987 L-72 987 L-72 986 "/></g><g><path fill="#000000" fill-rule="evenodd" d="M-73 986 L-73 985.5 L-72.5 985 L-72 986 L-73 986 "/></g><g><path fill="#000000" fill-rule="evenodd" d="M-76 984 L-77 984 L-77 983 L-76 983 L-76 984 "/></g><g><path fill="#000000" fill-rule="evenodd" d="M-105 982 L-106 982 L-106 981 L-105 981 L-105 982 "/></g><g><path fill="#000000" fill-rule="evenodd" d="M-86 978 L-86 977.5 L-85.5 977 L-85 978 L-86 978 "/></g><g><path fill="#000000" fill-rule="evenodd" d="M-118 959 L-117 959.5 L-118 960 L-118 959 "/></g><g><path fill="#000000" fill-rule="evenodd" d="M-110 946 L-111 946 L-111 945 L-110 945 L-110 946 "/></g><g><path fill="#000000" fill-rule="evenodd" d="M-109 944 L-110 944 L-110 943 L-109 943 L-109 944 "/></g><g><path fill="#000000" fill-rule="evenodd" d="M-134 944 L-134.5 944 L-135 943.5 L-134 943 L-134 944 "/></g><g><path fill="#000000" fill-rule="evenodd" d="M-108 941 L-109 941 L-109 940 L-108 940 L-108 941 "/></g><g><path fill="#000000" fill-rule="evenodd" d="M-131 938 L-132 938 L-132 937 L-131 937 L-131 938 "/></g><g><path fill="#000000" fill-rule="evenodd" d="M-130 935 L-131 935 L-131 934 L-130 934 L-130 935 "/></g><g><path fill="#000000" fill-rule="evenodd" d="M-129 933 L-130 933 L-130 932 L-129 932 L-129 933 "/></g><g><path fill="#000000" fill-rule="evenodd" d="M-105 932 L-106 932 L-106 931 L-105 931 L-105 932 "/></g><g><path fill="#000000" fill-rule="evenodd" d="M-104 929 L-105 929 L-105 928 L-104 928 L-104 929 "/></g><g><path fill="#000000" fill-rule="evenodd" d="M-127 927 L-128 927 L-128 926 L-127 926 L-127 927 "/></g><g><path fill="#000000" fill-rule="evenodd" d="M-147 968 L-148 968 L-148 967 L-147 967 L-147 968 "/></g><g><path fill="#000000" fill-rule="evenodd" d="M-143 961 L-144 961 L-144 960 L-143 960 L-143 961 "/></g><g><path fill="#000000" fill-rule="evenodd" d="M-142 959 L-143 959 L-143 958 L-142 958 L-142 959 "/></g><g><path fill="#000000" fill-rule="evenodd" d="M-139 954 L-140 954 L-140 953 L-139 953 L-139 954 "/></g><g><path fill="#000000" fill-rule="evenodd" d="M-135 946 L-136 946 L-136 945 L-135 945 L-135 946 "/></g><g><path fill="#000000" fill-rule="evenodd" d="M108 876 L107 876 L107 875 L108 875 L108 876 "/></g><g><path fill="#000000" fill-rule="evenodd" d="M10 919 L9 919 L9 918 L10 918 L10 919 "/></g><g><path fill="#000000" fill-rule="evenodd" d="M-46 924 L-46.5 924 L-47 923.5 L-46 923 L-46 924 "/></g><g><path fill="#000000" fill-rule="evenodd" d="M-65 897 L-65.5 898 L-66 897 L-65 897 "/></g><g><path fill="#000000" fill-rule="evenodd" d="M-70 897 L-71 897 L-71 896 L-70 896 L-70 897 "/></g><g><path fill="#000000" fill-rule="evenodd" d="M-26 873 L-27 873 L-27 872 L-26 872 L-26 873 "/></g><g><path fill="#000000" fill-rule="evenodd" d="M-36 872 L-37 872 L-37 871 L-36 871 L-36 872 "/></g><g><path fill="#000000" fill-rule="evenodd" d="M-38 872 L-39 872 L-39 871 L-38 871 L-38 872 "/></g><g><path fill="#000000" fill-rule="evenodd" d="M-44 872 L-45 872 L-45 871 L-44 871 L-44 872 "/></g><g><path fill="#000000" fill-rule="evenodd" d="M-47.5 872 L-49 872 L-48.5 871 L-47 871 L-47.5 872 "/></g><g><path fill="#000000" fill-rule="evenodd" d="M-65 870 L-66 870 L-66 869 L-65 869 L-65 870 "/></g><g><path fill="#000000" fill-rule="evenodd" d="M-51.5 864 L-53 864 L-52.5 863 L-51 863 L-51.5 864 "/></g><g><path fill="#000000" fill-rule="evenodd" d="M-126 924 L-127 924 L-127 923 L-126 923 L-126 924 "/></g><g><path fill="#000000" fill-rule="evenodd" d="M-125 921 L-126 921 L-126 920 L-125 920 L-125 921 "/></g><g><path fill="#000000" fill-rule="evenodd" d="M-118 896 L-118.5 896 L-119 895.5 L-118 895 L-118 896 "/></g><g><path fill="#000000" fill-rule="evenodd" d="M-115.25 882.75 L-116.75 882.75 L-116.5 881 L-116 879.5 L-116 879 L-115 879.5 L-115.25 882.75 "/></g><g><path fill="#000000" fill-rule="evenodd" d="M-115 878 L-116 878 L-116 877 L-115 877 L-115 878 "/></g><g><path fill="#000000" fill-rule="evenodd" d="M97 850 L96 850 L96 849 L97 849 L97 850 "/></g><g><path fill="#000000" fill-rule="evenodd" d="M92 823 L91 823 L91 822 L92 822 L92 823 "/></g><g><path fill="#000000" fill-rule="evenodd" d="M0 847 L0.25 846.25 L2 847 L0 847 "/></g><g><path fill="#000000" fill-rule="evenodd" d="M-8 843 L-9 843 L-9 842 L-8 842 L-8 843 "/></g><g><path fill="#000000" fill-rule="evenodd" d="M91 777 L90 777 L90 776 L91 776 L91 777 "/></g><g><path fill="#000000" fill-rule="evenodd" d="M100 771 L100 770 L101 770 L101 770.5 L100.5 771 L100 771 "/></g><g><path fill="#000000" fill-rule="evenodd" d="M103 768 L105.5 768 L106 768.5 L105.5 769 L103 769 L103 768 "/></g><g><path fill="#000000" fill-rule="evenodd" d="M12 763 L11 763 L11 762 L12 762 L12 763 "/></g><g><path fill="#000000" fill-rule="evenodd" d="M-37 797 L-38 797 L-38 796 L-37 796 L-37 797 "/></g><g><path fill="#000000" fill-rule="evenodd" d="M-13 781 L-14 781 L-14 780 L-13 780 L-13 781 "/></g><g><path fill="#000000" fill-rule="evenodd" d="M-48 770 L-48 769 L-47.5 769 L-47 769.5 L-47 770 L-48 770 "/></g><g><path fill="#000000" fill-rule="evenodd" d="M-49 769 L-49 768.5 L-48.5 768 L-48 769 L-49 769 "/></g><g><path fill="#000000" fill-rule="evenodd" d="M-53 766 L-54 766 L-54 765 L-53 765 L-53 766 "/></g><g><path fill="#000000" fill-rule="evenodd" d="M-55 765 L-56 765 L-56 764 L-55 764 L-55 765 "/></g><g><path fill="#000000" fill-rule="evenodd" d="M-57 764 L-58 764 L-58 763 L-57 763 L-57 764 "/></g><g><path fill="#000000" fill-rule="evenodd" d="M-59 763 L-60 763 L-60 762 L-59 762 L-59 763 "/></g><g><path fill="#000000" fill-rule="evenodd" d="M-67 756 L-68 756 L-68 755 L-67 755 L-67 756 "/></g><g><path fill="#000000" fill-rule="evenodd" d="M-57 752 L-58 752 L-58 751 L-57 751 L-57 752 "/></g><g><path fill="#000000" fill-rule="evenodd" d="M-51 751 L-52 751 L-52 750 L-51 750 L-51 751 "/></g><g><path fill="#000000" fill-rule="evenodd" d="M-67 738 L-66 738.5 L-67 739 L-67 738 "/></g><g><path fill="#000000" fill-rule="evenodd" d="M111 712 L110 712 L110 711 L111 711 L111 712 "/></g><g><path fill="#000000" fill-rule="evenodd" d="M108 708 L107 708 L107 707 L108 707 L108 708 "/></g><g><path fill="#000000" fill-rule="evenodd" d="M-117 687 L-118 687 L-118 686 L-117 686 L-117 687 "/></g><g><path fill="#000000" fill-rule="evenodd" d="M-119 686 L-120 686 L-120 685 L-119 685 L-119 686 "/></g><g><path fill="#000000" fill-rule="evenodd" d="M-120 684 L-121 684 L-121 683 L-120 683 L-120 684 "/></g><g><path fill="#000000" fill-rule="evenodd" d="M-121 682 L-122 682 L-122 681 L-121 681 L-121 682 "/></g><g><path fill="#000000" fill-rule="evenodd" d="M133.5 647 L132 647 L132.5 646 L134 646 L133.5 647 "/></g><g><path fill="#000000" fill-rule="evenodd" d="M131 647 L130 647 L130 646 L131 646 L131 647 "/></g><g><path fill="#000000" fill-rule="evenodd" d="M147 646 L146 646 L146 645 L147 645 L147 646 "/></g><g><path fill="#000000" fill-rule="evenodd" d="M145 646 L144 646 L144 645 L145 645 L145 646 "/></g><g><path fill="#000000" fill-rule="evenodd" d="M78 669 L77 669 L77 668 L78 668 L78 669 "/></g><g><path fill="#000000" fill-rule="evenodd" d="M78 652 L77 652 L77 651 L78 651 L78 652 "/></g><g><path fill="#000000" fill-rule="evenodd" d="M75.5 652 L73 652 L73.5 651 L76 651 L75.5 652 "/></g><g><path fill="#000000" fill-rule="evenodd" d="M84 644 L83 643.5 L83 641 L84 641.5 L84 644 "/></g><g><path fill="#000000" fill-rule="evenodd" d="M83 638 L82 638 L82 637 L83 637 L83 638 "/></g><g><path fill="#000000" fill-rule="evenodd" d="M57 653 L56 653 L56 652 L57 652 L57 653 "/></g><g><path fill="#000000" fill-rule="evenodd" d="M29 608 L28 608 L28 607 L29 607 L29 608 "/></g><g><path fill="#000000" fill-rule="evenodd" d="M-37 657 L-36 657.5 L-37 658 L-37 657 "/></g><g><path fill="#000000" fill-rule="evenodd" d="M67 602 L68 602.5 L67 603 L67 602 "/></g><g><path fill="#000000" fill-rule="evenodd" d="M60 587 L59 587 L59 586 L60 586 L60 587 "/></g><g><path fill="#000000" fill-rule="evenodd" d="M62 585 L61.5 585 L61 584.5 L62 584 L62 585 "/></g><g><path fill="#000000" fill-rule="evenodd" d="M62 584 L62 583.5 L62.5 583 L63 583 L63 584 L62 584 "/></g><g><path fill="#000000" fill-rule="evenodd" d="M69 578 L68 578 L68 577 L69 577 L69 578 "/></g><g><path fill="#000000" fill-rule="evenodd" d="M1 602 L0.5 603 L0 602 L1 602 "/></g><g><path fill="#000000" fill-rule="evenodd" d="M0 602 L-0.5 602 L-1 601.5 L0 601 L0 602 "/></g><g><path fill="#000000" fill-rule="evenodd" d="M-2 599 L-2.5 600 L-3 599 L-2 599 "/></g><g><path fill="#000000" fill-rule="evenodd" d="M-3 599 L-3.5 599 L-4 598.5 L-3 598 L-3 599 "/></g><g><path fill="#000000" fill-rule="evenodd" d="M19 597 L20 597.5 L19 598 L19 597 "/></g><g><path fill="#000000" fill-rule="evenodd" d="M18 597 L18 596.5 L18.5 596 L19 597 L18 597 "/></g><g><path fill="#000000" fill-rule="evenodd" d="M12 590 L11 590 L11 589 L12 589 L12 590 "/></g><g><path fill="#000000" fill-rule="evenodd" d="M-7 595 L-8 595 L-8 594 L-7 594 L-7 595 "/></g><g><path fill="#000000" fill-rule="evenodd" d="M-8 594 L-9 594 L-9 593 L-8 593 L-8 594 "/></g><g><path fill="#000000" fill-rule="evenodd" d="M-14 589 L-15 589 L-15 588 L-14 588 L-14 589 "/></g><g><path fill="#000000" fill-rule="evenodd" d="M-15 587 L-16 587 L-16 586 L-15 586 L-15 587 "/></g><g><path fill="#000000" fill-rule="evenodd" d="M-18 585 L-17 585 L-17.5 586 L-18 585 "/></g><g><path fill="#000000" fill-rule="evenodd" d="M-30 578 L-30 577 L-31 577 L-31 578 L-30 578 M-31 581 L-31 580 L-32 580 L-32 581 L-31 581 M-10 591 L-10 590 L-11 590 L-11 591 L-10 591 M5 605 L5 604 L4 604 L4 605 L5 605 M-37 658 L-32 658.25 L-30.5 658 L-29.5 657 L-28.5 658 L-27.5 657 L-25 657.5 L-22 657.5 L-19 656.5 L-15 656.5 L-12.5 657 L-11.5 656 L-10.5 657 L-9.5 656 L-4.5 656 L-3.5 657 L-2.5 656 L-1.5 657 L-0.5 657 L0.5 656 L1.5 657 L2.5 656 L39.5 654 L40.5 653 L41.5 654 L42.5 653 L43.5 654 L44.5 654 L45.5 653 L46.5 654 L47 653.5 L47 652.5 L47.5 652 L49.5 654 L50.5 653 L52 653.25 L57 653.25 L59 653.5 L61 653.5 L62.5 653 L63.5 652 L64.5 653 L86.5 653 L87 652 L84.5 652 L84 651 L84.5 651 L85.875 650.75 L78.5 603 L77.5 599 L77 594.5 L76.5 594 L74.5 596 L69.5 599 L67 601.5 L67 602 L66 602.5 L66.5 603 L67 603 L65.5 604 L64 605.5 L64 606.5 L63.5 607 L62.5 606 L61 607.5 L60.75 608.75 L59.5 609 L54 614.5 L54 615.5 L47.5 622 L46.5 622 L43.5 625 L41 625.375 L36 626.625 L33.5 627 L32.5 626 L31.5 627 L30.5 626 L28 625.625 L23 624.25 L21.5 624 L20 622.5 L19.75 621.25 L18.5 621 L9 611.5 L8.75 609.25 L7.5 609 L2 603.5 L2 602.5 L1 602 L1 601.5 L0.5 601 L0 601 L0 600.5 L-1.5 599 L-2 599 L-2 598.5 L-2.5 598 L-3 598 L-4.5 597 L-5 596.5 L-4 595.5 L-7.5 592 L-8.5 592 L-9.5 591 L-10.5 592 L-11.5 592 L-13 590.5 L-12 589.5 L-14 587.5 L-14 586.5 L-15.5 585 L-17 585 L-17.5 584 L-18 584.5 L-18 585 L-19.5 587 L-20.375 589 L-25.5 608 L-26.625 611 L-35.25 642 L-37 657 L-38 657.5 L-37.5 658 L-37 658 M7 607 L7 606 L6 606 L6 607 L7 607 M81 654 L81 653 L80 653 L80 654 L81 654 M83 654 L83 653 L82 653 L82 654 L83 654 M59.5 669 L60 668 L58.5 668 L58 669 L59.5 669 M-62 728 L-62 727 L-63 727 L-63 728 L-62 728 M-64 731 L-64 730 L-65 730 L-65 731 L-64 731 M11 673 L11 672 L10 672 L10 673 L11 673 M27 673 L27 672 L26 672 L26 673 L27 673 M3 674 L3 673 L2 673 L2 674 L3 674 M36 675 L36 674 L35 674 L35 675 L36 675 M-71 773 L-71 772 L-72 772 L-72 773 L-71 773 M-67 739 L-65 739.625 L-62 738.625 L-55 737.25 L-53 736.5 L-51 736.375 L-48 736.625 L-18 732.125 L-16 731.625 L-12.5 731 L-11.5 732 L-10.5 731 L7.5 730 L8.5 731 L9.5 730 L13.5 730 L14.5 729 L15.5 730 L19.5 730 L20.5 729 L21.5 730 L25 730.625 L38 730.5 L40.5 731 L41.5 732 L42.5 731 L73 733.75 L75 734.375 L86.5 737 L88.5 739 L93 739.5 L97 740.5 L99.75 740.75 L99.625 739 L98.375 735 L97 732.5 L95 729.5 L88.5 721 L87.5 719 L86.75 717.25 L69 701.5 L65.5 699 L61.5 695 L59 694.375 L54 692.5 L51.5 692 L49.5 690 L47 689.375 L43 687.625 L32 684.5 L27 683.75 L9 683.75 L5 684.625 L3 684.5 L1.5 684 L0.5 685 L-0.5 684 L-1.5 685 L-6 685.5 L-16 687.75 L-21 690.375 L-29 693.5 L-34 696.5 L-35.75 697.25 L-36.25 698.75 L-41 701.5 L-42.5 702 L-44 703.5 L-44 704.5 L-45 705.5 L-44 706.5 L-44 709.5 L-47.5 713 L-48.5 713 L-51 715.5 L-51 716.5 L-53.5 719 L-57.75 721.25 L-60.5 726 L-61 727.5 L-63 729.5 L-63.25 731.75 L-64.5 732 L-65 732.5 L-64 733.5 L-65 734.5 L-65.25 735.75 L-66.75 736.25 L-67 738 L-68.75 738.25 L-69 739.5 L-68.5 740 L-67.5 739 L-67 739 M-50 770 L-50 769 L-51 769 L-51 770 L-50 770 M-47 770 L-43.5 773 L-42 773.5 L-40 774.5 L-38.5 775 L-37.5 774 L-34.5 777 L-33 777.5 L-31 778.375 L-15 782.375 L-8.5 783 L-8 782.5 L-9.5 781 L-12.5 780 L-14 778.5 L-17.375 773 L-18.25 769 L-18.125 754 L-17.625 752 L-15.5 747 L-15.25 745.25 L-17 745.25 L-21.5 746 L-22.5 747 L-23.5 746 L-26.75 746.25 L-27 747.5 L-27.5 748 L-28.5 747 L-34.75 747.125 L-35 748.5 L-35.5 749 L-36.5 748 L-41.75 748.125 L-42 749.5 L-42.5 750 L-43.5 749 L-46.5 750 L-47.5 749 L-48.5 750 L-49.5 749 L-63.75 752.25 L-64.25 753.75 L-65.5 754 L-66.5 753 L-67.5 754 L-68.75 754.25 L-69 756.5 L-67.5 758 L-64.25 759.25 L-64 760.5 L-63.5 761 L-62.5 760 L-62 760.5 L-61.75 762.75 L-60.5 763 L-57.5 766 L-56.5 765 L-55.5 766 L-54.5 766 L-52.5 768 L-50 768.625 L-49 769 L-49 769.5 L-48.5 770 L-48 770 L-47.5 771 L-47 770 M-42 775 L-42 774 L-43 774 L-43 775 L-42 775 M-36 777 L-36 776 L-37 776 L-37 777 L-36 777 M58 772.625 L61 771.375 L62.5 771 L64.5 769 L67 768.5 L70 767.375 L71.5 767 L73.5 765 L76 764.375 L82 761.625 L84.5 761 L86.5 759 L88 758.625 L94.75 755.75 L94.75 754.25 L84 752.25 L79 750.625 L70 748.625 L65.25 747.875 L65 746.5 L64.5 746 L63.5 747 L59.5 747 L58.5 746 L57.5 747 L56.5 746 L54.5 746 L53.5 747 L53 746.5 L52.75 745 L34.5 744 L33.5 745 L32.5 744 L30.5 744 L30 744.5 L33 747.5 L33.5 749 L34.375 751 L35.375 754 L36 759.5 L37 760.5 L36 761.5 L37 762.5 L36 763.5 L36 764.5 L37 765.5 L36 766.5 L37 767.5 L36 768.5 L37 769.5 L36.625 771 L36 774.5 L32 778.5 L32 779.5 L31 780.5 L31.5 781 L34 780.5 L39 778.625 L46 776.5 L48.5 776 L49.5 775 L50.5 776 L52 775.5 L56 773.5 L58 772.625 M12.5 765 L13 764.5 L12.5 761 L11.75 758.25 L10.25 758.25 L10 759.5 L9 760.5 L10 762 L12.5 765 M31 782 L31 781 L30 781 L30 782 L31 782 M-5.5 784 L-5 783 L-6.5 783 L-7 784 L-5.5 784 M-4 785 L-4 784 L-5 784 L-5 785 L-4 785 M74 749 L74 748 L73 748 L73 749 L74 749 M107 766 L107 765 L106 765 L106 766 L107 766 M75 767 L75 766 L74 766 L74 767 L75 767 M-85 799 L-85 798 L-86 798 L-86 799 L-85 799 M-69 843 L-69 842 L-70 842 L-70 843 L-69 843 M-61 856 L-61 855 L-62 855 L-62 856 L-61 856 M2 847 L3 848.5 L3.5 849 L4.5 848 L5.5 849 L7.5 849 L8.5 848 L9.5 849 L19 847.5 L24 846.25 L25.5 846 L26.5 845 L27.5 846 L29.5 844 L31.5 844 L33.5 842 L37.5 842 L39.5 840 L42.5 840 L43.5 839 L44.5 840 L45.5 839 L46.5 839 L47.5 838 L48.5 839 L49.5 838 L56.5 837 L57.5 836 L58.5 837 L59.5 836 L63 835.5 L68 834.25 L75 831.5 L76.5 831 L77.5 830 L78.5 831 L80.5 829 L84.5 828 L85.5 829 L87 827.5 L86.5 827 L85.25 826.75 L85.25 825.25 L86.5 825 L87.5 826 L88 825.5 L88 824.5 L89.5 823 L90.5 824 L91.5 824 L94 821.5 L101.5 809 L102.375 807 L106.375 795 L108 785.5 L109 784.5 L108 783.5 L109 782.5 L109 777.5 L110 776.5 L109 775.5 L109 768.5 L108 767.5 L109 766.5 L108.5 766 L103.25 767.25 L103 768 L102 768.5 L102.5 769 L103 769 L103 769.5 L102.5 770 L101 770 L100.5 769 L100 769.5 L100 770 L99 770.5 L99.5 771 L100 771 L96.25 772.25 L96 773.5 L95 774 L95 772.5 L94 772 L94 772.5 L93.75 773.75 L92.5 774 L91.5 775 L90.5 774 L89.5 775 L87.5 775 L87 776 L88.5 776 L89 777 L88.5 777 L83 777.75 L81 778.5 L77 780.5 L72 782.625 L70.5 783 L68.5 785 L66 785.625 L60 789.375 L56 790.5 L53 791.625 L51.5 792 L50.5 791 L48.5 793 L45 793.5 L36 797.5 L34.5 798 L33.5 799 L32.5 798 L31.5 799 L30.5 798 L29.5 799 L1.5 801 L0.5 802 L-0.5 801 L-1.5 801 L-2.5 802 L-3.5 801 L-12 801.75 L-14 801.625 L-20 799.5 L-28 797.625 L-34.5 797 L-36.5 795 L-37.5 795 L-39.5 793 L-43.5 792 L-45.5 790 L-47.5 790 L-49.5 788 L-51 787.625 L-54 786.375 L-55.5 786 L-58.5 783 L-60.5 783 L-64.5 779 L-65.75 778.75 L-67 775.5 L-69.5 773 L-70.75 773.25 L-70.5 777 L-67.25 791 L-66.5 793 L-63.5 799 L-57.5 814 L-52.5 822 L-46.75 829.75 L-45.25 830.25 L-45 831.5 L-43 833.5 L-44 834.5 L-43.5 835 L-41.5 835 L-37.5 839 L-36.5 839 L-35.5 840 L-34.5 839 L-33.5 840 L-30 840.625 L-26.25 842.25 L-26 843.5 L-24.5 845 L-23.5 844 L-22.5 845 L-21.5 844 L-12.5 843 L-11.5 844 L-10.5 843 L-9.5 844 L-8 843.625 L-5.25 843.25 L-5 844.5 L-4.5 845 L-3.5 844 L-3 844.5 L-2.75 845.75 L-1 846.5 L0 847 L1.5 848 L2 847 M65 838 L65 837 L64 837 L64 838 L65 838 M61 839 L61 838 L60 838 L60 839 L61 839 M124 805 L124 804 L123 804 L123 805 L124 805 M-85.5 895 L-85 894 L-87.5 894 L-88 895 L-85.5 895 M-76 895 L-76 894 L-77 894 L-77 895 L-76 895 M-118 900 L-118 899 L-119 899 L-119 900 L-118 900 M-119 905 L-119 904 L-120 904 L-120 905 L-119 905 M-25 876 L-25 875 L-26 875 L-26 876 L-25 876 M-15 903 L-15 902 L-16 902 L-16 903 L-15 903 M-10 917 L-10 916 L-11 916 L-11 917 L-10 917 M-46 923 L-44.5 922 L-42.5 920 L-41.5 921 L-35.5 915 L-34 914.5 L-32 913.5 L-29 911.5 L-24.5 908 L-21.5 906 L-17 901.5 L-17.5 901 L-33.5 900 L-34.5 899 L-35.5 900 L-36.5 900 L-37.5 899 L-38.5 900 L-39.5 899 L-53.5 899 L-54.5 898 L-55.5 899 L-59 898.375 L-61 897.625 L-65 897 L-65.5 896 L-66 896.5 L-66 897 L-68.5 897 L-70.5 895 L-72.5 895 L-73.5 896 L-74.5 895 L-77.5 896 L-79.5 894 L-83.75 894.125 L-83.625 896 L-83 898.5 L-81.5 900 L-76.5 901 L-73.5 904 L-72.5 904 L-70.5 906 L-69.5 905 L-69 905.5 L-66.625 910 L-66.625 914 L-67 915.5 L-60.5 922 L-59.5 922 L-58 923.5 L-57.75 924.75 L-56.25 925.25 L-55.75 926.75 L-52.5 928 L-51.5 929 L-50.5 928 L-49.25 927.75 L-48.75 925.25 L-46.5 925 L-46 924 L-45 923.5 L-46 923 M46.5 931 L47.5 930 L50.5 929 L51 928.5 L50 927.5 L51 924.5 L53 922.5 L53 920.5 L56 917.5 L56.25 916.25 L57.75 915.75 L58 914.5 L59.5 913 L60.5 913 L63 910.5 L63 909.5 L64.5 908 L65.75 907.75 L66.25 906.25 L70.5 904 L72 902.5 L72 899.5 L73 898.5 L72.5 898 L69.5 898 L68.5 899 L67.5 898 L66.5 899 L65.5 898 L64.5 899 L63.5 898 L28.5 899 L26.5 901 L25.5 900 L24.5 901 L22.5 901 L21.5 902 L19.5 900 L18.5 901 L17.5 900 L16.5 901 L15.5 901 L15 901.5 L17.5 904 L18.5 904 L19 904.5 L18 905.5 L18.5 906 L23.75 909.25 L24 910.5 L25.5 912 L26.5 912 L42.5 928 L43.5 927 L44 928 L46.5 931 M15 901 L15 900 L14 900 L14 901 L15 901 M93 875 L93 874 L92 874 L92 875 L93 875 M96 875 L96 874 L95 874 L95 875 L96 875 M99 875 L99 874 L98 874 L98 875 L99 875 M101.5 876 L102 875 L100.5 875 L100 876 L101.5 876 M155 904 L155 903 L154 903 L154 904 L155 904 M157 912 L157 910.5 L156 910 L156 911 L157 912 M158 917 L158 914.5 L157 914 L157 916.5 L158 917 M139 921 L139 920 L138 920 L138 921 L139 921 M-84 980 L-84 979 L-85 979 L-85 980 L-84 980 M-52 930 L-52 929 L-53 929 L-53 930 L-52 930 M52 928 L52 927 L51 927 L51 928 L52 928 M48 932 L48 931 L47 931 L47 932 L48 932 M49 933 L49 932 L48 932 L48 933 L49 933 M36 943 L36 942 L35 942 L35 943 L36 943 M7 961 L7 960 L6 960 L6 961 L7 961 M16 964 L16 963 L15 963 L15 964 L16 964 M71 926 L70.75 927.75 L69.25 928.25 L67.625 932 L67 934.5 L65 936.5 L64.5 938 L63.5 940 L62.75 941.75 L61.25 942.25 L61 944.5 L58 947.5 L57.75 948.75 L56.25 949.25 L55.75 950.75 L53.5 951 L51.5 953 L49.5 953 L48.5 952 L47.5 953 L45.5 951 L44.5 952 L39.5 947 L38.25 946.75 L37.75 945.25 L36.5 945 L34 942.5 L34 941.5 L33.5 941 L32.5 942 L31 940.5 L32 939.5 L29.5 937 L28.5 938 L28 937.5 L28 935.5 L24.5 932 L23.25 931.75 L23 930.5 L21.5 929 L20.5 929 L19 927.5 L19 926.5 L17.5 925 L15.25 924.75 L14 921.5 L12.5 920 L11.25 919.75 L11 918.5 L8.5 916 L4.5 914 L3.5 913 L3 913.5 L3 915.5 L4 916.5 L3 917.5 L3 919.5 L2 920.5 L3 921.5 L3 922.5 L2 923.5 L3 924.5 L2 925.5 L3 926.5 L2 927.5 L2.625 931 L3 932.5 L2 933.5 L3 934.5 L2 940.5 L3 941.5 L2 942.5 L3 943.5 L2.625 945 L2.375 948 L3 952.5 L2 953.5 L3 954.5 L3 957.5 L2 958.5 L4.5 961 L6.5 959 L10 959.625 L11.5 960 L12.5 959 L13 959.5 L13 960.5 L13.5 961 L14.5 960 L15 960.5 L17.25 964.75 L18.75 965.25 L19 966.5 L21 968.5 L20 969.5 L21 970.5 L20 971.5 L20 975.5 L18.5 977 L15.5 978 L14.5 979 L13.5 978 L9.5 978 L8.5 977 L7.5 978 L7 977.5 L6.75 976.25 L3.5 976 L1 978.5 L1 988.5 L2 989.5 L1.5 990 L0.5 990 L0 990.5 L2 992.5 L1 993.5 L1.5 994 L4 994.625 L6 994.5 L8 993.75 L14 993.5 L19.5 995 L23 998.5 L23 1000.5 L22 1001.5 L22.5 1002 L23.875 1002.25 L24 1006.5 L25 1007.5 L21.5 1011 L1.5 1011 L0 1012.5 L1 1013.5 L0.5 1015 L0.125 1017 L0 1031.5 L-1 1032.5 L-0.5 1033 L10.5 1033 L11.5 1034 L12.5 1033 L54.75 1035.88 L54.5 1034 L46.625 1024 L46 1021.5 L44 1019.5 L45 1018.5 L44 1017.5 L46 1007.5 L48.5 1005 L49.5 1005 L51 1003.5 L52 999.5 L54 997.5 L54.25 996.25 L55.75 995.75 L56.25 994.25 L61 991.5 L62.5 991 L64 989.5 L64.25 988.25 L69 986.5 L72.5 986 L74.5 984 L77.5 983 L80.5 980 L82.75 979.75 L83.25 978.25 L86.5 978 L87.5 977 L88.5 978 L89.5 977 L91.5 977 L94.5 980 L95.5 980 L98 982.5 L98.5 986 L98.5 990 L97.375 993 L97 994.5 L94.5 997 L93 997.5 L83 1002.5 L81.25 1003.25 L81.375 1005 L82 1007.5 L82.5 1008 L83.5 1007 L84 1007.5 L84 1008.5 L84.5 1009 L85.5 1008 L86.5 1008 L87 1008.5 L86 1009.5 L86.25 1011.75 L88.5 1012 L91 1014.5 L93.5 1019 L95.375 1023 L96 1025.5 L99 1028.5 L99 1029.5 L106.5 1037 L107.5 1036 L110 1035.38 L123 1029.63 L125.5 1029 L129 1025.5 L129.25 1024.25 L130.5 1024 L134 1020.5 L134 1019.5 L135.5 1018 L136.75 1017.75 L137.25 1016.25 L141.5 1015 L142 1014 L140.5 1014 L140 1013 L142.5 1013 L144 1011.5 L144.25 1008.25 L145.75 1007.75 L147.25 1003.25 L148.5 1003 L149 1002.5 L148 1001.5 L149 1000.5 L148 999.5 L148 996.5 L149 995.5 L148 994.5 L148 987.5 L147 986.5 L148 985.5 L147 984.5 L147 978.5 L146 977.5 L147 976.5 L146 975.5 L145.5 970 L140.5 945 L140 938.5 L139.5 938 L138.5 939 L138 938.5 L138.5 936 L138.75 933.25 L137.5 933 L137 932.5 L138 931.5 L137 930.5 L136.5 928 L136.75 923.25 L135.25 922.75 L135.375 921 L136 918.5 L135.5 918 L134.5 919 L134 918.5 L134.5 917 L134.75 915.25 L133.25 914.75 L133 913.5 L129 909.5 L129 907.5 L128 906.5 L129 905.5 L129 902.5 L128.5 902 L127.5 903 L126.5 902 L119 901.5 L102.5 898 L101 899.5 L100 903.5 L98.5 905 L96 906.5 L88 912.5 L85 914.5 L83.25 915.25 L82.75 916.75 L78.5 919 L77 920.5 L76.75 921.75 L75.5 922 L72 925 L71.5 924 L71 924.5 L71 925 L70 925.5 L70.5 926 L71 926 M70 927 L70 926 L69 926 L69 927 L70 927 M81 982 L81 981 L80 981 L80 982 L81 982 M-164 1008 L-164 1007 L-165 1007 L-165 1008 L-164 1008 M-164 1011 L-164 1010 L-165 1010 L-165 1011 L-164 1011 M-134 1008 L-134 1007 L-135 1007 L-135 1008 L-134 1008 M-99 1022 L-97.25 1022.75 L-95.75 1019.25 L-91.5 1018 L-88.5 1015 L-87.25 1014.75 L-86.75 1012.25 L-82.25 1009.75 L-81.75 1008.25 L-80.25 1007.75 L-78 1003.5 L-79.5 1002 L-81.5 1002 L-83.5 1000 L-85.75 1000.25 L-87 1002.5 L-97 1017.5 L-98 1018.5 L-97 1019.5 L-97.5 1020 L-98.75 1020.25 L-99 1021 L-100 1021.5 L-99.5 1022 L-99 1022 M-100 1024 L-100 1022.5 L-100.5 1022 L-101 1022.5 L-101 1024 L-101.5 1024 L-102 1024.5 L-102 1025 L-103 1026.5 L-102 1027.5 L-106 1031.5 L-105.75 1032.75 L-103.5 1033 L-102.5 1032 L-101.5 1033 L-100.125 1032.75 L-99 1024.5 L-100 1024 M-104 1029 L-104 1028 L-105 1028 L-105 1029 L-104 1029 M-66 990 L-66 989 L-67 989 L-67 990 L-66 990 M-58 994 L-58 993 L-59 993 L-59 994 L-58 994 M-15 1014 L-15 1013 L-16 1013 L-16 1014 L-15 1014 M-15 1035 L-15 1034 L-16 1034 L-16 1035 L-15 1035 M-49 1036 L-47.5 1036 L-46.5 1035 L-45.5 1036 L-41.5 1035 L-40.5 1036 L-40 1035.5 L-40 1034.5 L-39.5 1034 L-38.5 1035 L-37 1035 L-36.5 1036 L-36 1035 L-31.5 1034 L-30.5 1035 L-29.5 1034 L-27 1034 L-26.5 1035 L-26 1034 L-24.5 1034 L-23.5 1033 L-22.5 1034 L-18 1033.25 L-16.25 1032.75 L-17 1024.5 L-18 1023.5 L-17 1022.5 L-16.25 1017 L-16.375 1015 L-17 1012.5 L-16 1011.5 L-17.5 1010 L-19.5 1010 L-20.5 1011 L-21.5 1010 L-22.5 1011 L-23.5 1010 L-27 1009.38 L-28.75 1008.75 L-29 1007.5 L-31 1005.5 L-30.25 1000 L-29.75 998.25 L-26 996.75 L-21.5 996 L-19.5 994 L-18 994.5 L-16.25 994.75 L-15.5 993 L-15 991 L-14 989.5 L-15 989 L-13.25 982 L-13.25 980.25 L-15 979.625 L-18 979.625 L-19.5 980 L-20.5 981 L-21.5 980 L-22.5 981 L-24 981.25 L-29 981.25 L-30.5 981 L-34 977.5 L-34 973.5 L-32 971.5 L-31.75 970.25 L-30.5 970 L-30 969.5 L-31 968.5 L-30.5 968 L-25 967.375 L-22 966.625 L-17.5 966 L-16.5 965 L-15.5 966 L-14.5 966 L-12 963.5 L-13 962.5 L-12 961.5 L-12 939.5 L-13 938.5 L-12 937.5 L-12 936.5 L-13 935.5 L-12 934.5 L-12 917.25 L-13.75 917.25 L-14.25 918.75 L-18.5 921 L-19 921.5 L-18 922.5 L-19.5 924 L-20.5 923 L-23.5 926 L-24.5 926 L-26.5 928 L-28.5 928 L-29 928.5 L-28 929.5 L-30.5 932 L-43 942.5 L-44.75 943.25 L-45.25 944.75 L-46.5 945 L-49.5 948 L-50.5 947 L-51.5 948 L-52.5 948 L-53.5 949 L-54.5 948 L-55.5 949 L-56 948.5 L-56 947.5 L-56.5 947 L-57.5 948 L-58.75 947.75 L-59 946.5 L-59.5 946 L-60.5 947 L-63.5 944 L-64.75 943.75 L-65 942.5 L-73.5 934 L-76.5 932 L-86.75 923.75 L-87.25 922.25 L-92.5 919 L-95 916.5 L-95.25 915.25 L-96.5 915 L-97 914.5 L-96 913.5 L-98 911.5 L-98 910.5 L-99 909.5 L-98 908.5 L-98 907.5 L-99 906.5 L-98 905.5 L-99.5 904 L-100 904.5 L-100.5 910 L-102.5 917 L-103 919.5 L-104 920.5 L-103 921.5 L-105 923.5 L-105.75 928 L-107.375 932 L-108.5 936 L-111.5 944 L-112 945.5 L-113 946.5 L-112 947.5 L-113 948.5 L-112 949.5 L-112.5 950 L-113.75 950.25 L-115 953.5 L-116 954.5 L-115 955.5 L-115.5 956 L-116.75 956.25 L-117.5 958 L-118 959 L-119 959.5 L-118.5 960 L-118 960 L-119.375 963 L-120 965.5 L-121.5 967 L-122.5 967 L-123 967.5 L-122 968.5 L-122.5 969 L-123.75 969.25 L-125 973.5 L-127 975.5 L-128 980.5 L-131 983.5 L-131.5 985 L-132.5 987 L-133 988.5 L-134 989.5 L-133 990.5 L-136 993.5 L-137.25 997.75 L-138.75 998.25 L-140 1002.5 L-136.5 1006 L-134.5 1006 L-132 1008.5 L-131 1015.5 L-130 1016.5 L-131 1017.5 L-131 1019.5 L-132 1020.5 L-130.5 1022 L-129.25 1022.25 L-129 1023.5 L-127.5 1025 L-122 1021.5 L-120.25 1020.75 L-119.75 1019.25 L-118.25 1018.75 L-118 1017.5 L-115.5 1015 L-114.5 1015 L-114 1014.5 L-115 1013.5 L-114.5 1013 L-113.5 1013 L-112 1011.5 L-111.75 1009.25 L-110.25 1008.75 L-108.75 1005.25 L-107.5 1005 L-107 1004.5 L-108 1003.5 L-105 1000.5 L-105 999.5 L-101 995.5 L-101 993.5 L-99 991.5 L-99 989.5 L-101.5 987 L-102.5 987 L-105 984.5 L-104 983.5 L-104.625 980 L-104.5 978 L-103.5 976 L-103 974.5 L-101.5 973 L-100 972.625 L-96 972.625 L-92 974.5 L-90.5 975 L-88.5 977 L-88 976.5 L-88 975.5 L-87 975 L-86.75 977.75 L-86 978 L-85.5 979 L-85 978 L-83.5 978 L-81 980.5 L-82 981.5 L-80.5 983 L-79.5 982 L-78 983.5 L-77.75 984.75 L-73 986 L-73 986.5 L-72.5 987 L-72 987 L-66 988.75 L-64.5 989 L-64 989.5 L-65 990.5 L-63.5 992 L-62.5 991 L-61.5 992 L-58.5 992 L-57 993.5 L-56.75 994.75 L-53.5 996 L-52 997.5 L-53 998.5 L-52 1002.5 L-51 1003.5 L-51.5 1004 L-52.75 1004.25 L-53.5 1006 L-54 1007 L-55 1007.5 L-54.5 1008 L-54 1008 L-56.5 1010 L-58.5 1011 L-59.5 1012 L-60.5 1011 L-61.5 1012 L-65.75 1014.25 L-66 1015.5 L-68 1017.5 L-68 1019.5 L-69 1020 L-69.5 1019 L-70 1019.5 L-70 1020 L-71.25 1022.75 L-73.75 1023.25 L-74 1024 L-75 1024.5 L-74.5 1025 L-74 1025 L-75.75 1026.25 L-76 1027.5 L-80 1031.5 L-81.25 1035.75 L-83.5 1036 L-84 1037 L-70.5 1036 L-69.5 1037 L-68.5 1036 L-65.5 1037 L-64.5 1036 L-63.5 1037 L-62.5 1036 L-59.5 1036 L-58.5 1035 L-58 1035.5 L-58 1036.5 L-57.5 1037 L-56.5 1036 L-55.5 1037 L-53.5 1035 L-53 1035.5 L-52.75 1036.75 L-51 1036.5 L-50 1036 L-49.5 1037 L-49 1036 M-42.5 1037 L-42 1036 L-43.5 1036 L-44 1037 L-42.5 1037 M-39 1037 L-39 1036 L-40 1036 L-40 1037 L-39 1037 M62 1015 L62 1014 L61 1014 L61 1015 L62 1015 M89 1015 L89 1014 L88 1014 L88 1015 L89 1015 M65 1017 L66 1018.5 L68 1020.5 L67 1021.5 L67.5 1022 L68.5 1022 L75 1028.5 L75 1029.5 L78.5 1033 L79 1032.5 L78.5 1031 L77.625 1029 L76.75 1026.25 L75.25 1025.75 L74.75 1023.25 L73.25 1022.75 L72.5 1021 L71.5 1019 L69.5 1014 L69.625 1011 L70 1009.5 L69.5 1009 L67 1011.5 L66.75 1012.75 L63.5 1014 L63 1014.5 L64 1015.5 L64 1016 L63 1016.5 L63.5 1017 L64 1017 L64.5 1018 L65 1017 M92 1018 L92 1017 L91 1017 L91 1018 L92 1018 M66 1020 L66 1019 L65 1019 L65 1020 L66 1020 M93 1020 L93 1019 L92 1019 L92 1020 L93 1020 M94 1023 L94 1022 L93 1022 L93 1023 L94 1023 M69 1024 L69 1023 L68 1023 L68 1024 L69 1024 M95 1025 L95 1024 L94 1024 L94 1025 L95 1025 M80 1034 L80 1033 L79 1033 L79 1034 L80 1034 M81 1036 L81 1035 L80 1035 L80 1036 L81 1036 M82 1038 L82 1036.5 L81 1036 L81 1037 L82 1038 M-10 1108 L-10 1107 L-11 1107 L-11 1108 L-10 1108 M-14 1109 L-14 1108 L-15 1108 L-15 1109 L-14 1109 M-7 1112 L-7 1111 L-8 1111 L-8 1112 L-7 1112 M3 1088 L3 1087 L2 1087 L2 1088 L3 1088 M7 1093 L7 1092 L6 1092 L6 1093 L7 1093 M8 1096 L8 1095 L7 1095 L7 1096 L8 1096 M14 1103 L14 1101.5 L13 1101 L13 1102 L14 1103 M16 1104 L16 1103 L15 1103 L15 1104 L16 1104 M117 1065 L117 1064 L116 1064 L116 1065 L117 1065 M76 1088 L76 1086.5 L75 1086 L75 1087 L76 1088 M75 1098 L75 1097 L74 1097 L74 1098 L75 1098 M74 1103 L74 1102 L73 1102 L73 1103 L74 1103 M-79 1121 L-76 1120.5 L-74 1120.5 L-72.5 1120 L-71.5 1121 L-70.5 1120 L-69.5 1121 L-68.5 1120 L-65.5 1119 L-64.5 1120 L-63.5 1119 L-61.5 1119 L-60.5 1120 L-59.5 1119 L-58.5 1120 L-56.25 1119.75 L-56 1117.5 L-54 1115.5 L-53 1112 L-52 1111.5 L-53 1111 L-51.5 1110 L-49 1107.5 L-50 1106.5 L-49.75 1105.25 L-49 1105 L-48.5 1106 L-48 1105 L-46.75 1103.25 L-45.5 1103 L-40 1097.5 L-39.75 1096.25 L-32.25 1090.75 L-32 1089.5 L-30.5 1088 L-29.25 1087.75 L-28.75 1086.25 L-27.5 1086 L-26 1084.5 L-25.75 1083.25 L-24.5 1083 L-23 1081.5 L-23 1080.5 L-18.5 1076 L-17.5 1076 L-15.5 1074 L-14.5 1075 L-13.5 1074 L-8.5 1074 L-7.5 1073 L-6.5 1074 L-2.25 1075.25 L-2 1076.5 L1 1079.5 L2 1083.5 L1 1084.5 L2.5 1086 L3.75 1086.25 L5 1088.5 L7 1091.5 L9.5 1096 L10 1097.5 L10.5 1098 L11.5 1097 L12 1097.5 L17.25 1104.75 L18.75 1105.25 L19 1106.5 L21.5 1109 L25.5 1109 L27.5 1111 L28.5 1111 L30 1112.5 L31 1115.5 L32.5 1117 L37 1117.63 L49.75 1117.88 L50 1116.5 L50.5 1116 L52.5 1118 L53.5 1117 L54.75 1116.75 L55 1114.5 L54 1113.5 L55 1112.5 L55 1108.5 L56 1107.5 L55 1106.5 L56.625 1098 L57 1094.5 L58 1093.5 L57 1092.5 L58 1091.5 L58.5 1086 L62.5 1065 L62.875 1059.13 L41.5 1057 L40.5 1056 L39.5 1057 L35 1056.25 L28 1056.5 L19.5 1055 L18.5 1056 L17.5 1055 L6.5 1054 L5.5 1055 L4.5 1054 L-20 1054.75 L-21.5 1055 L-22.5 1054 L-23.5 1055 L-26.5 1055 L-27.5 1054 L-28.5 1055 L-37.5 1055 L-38.5 1056 L-39.5 1055 L-40.5 1055 L-41.5 1056 L-42.5 1055 L-43.5 1056 L-44.5 1055 L-49.5 1055 L-50.5 1056 L-51.5 1055 L-54.5 1055 L-55.5 1056 L-56.5 1055 L-57.5 1056 L-78.5 1055 L-80 1056.5 L-80 1057.5 L-81 1058.5 L-80 1059.5 L-79.75 1070 L-81.25 1073.75 L-83 1074.25 L-82.5 1090 L-83 1092.5 L-82 1093.5 L-83 1094.5 L-82 1095.5 L-83 1096.5 L-82.5 1098 L-82.5 1100 L-83 1101.5 L-82 1102.5 L-83 1103.5 L-82 1104.5 L-82 1105.5 L-82.5 1106 L-83.5 1105 L-84 1105.5 L-82 1113.5 L-83 1114.5 L-82 1115.5 L-83 1116.5 L-83.25 1117.75 L-84.75 1118.25 L-84.75 1119.75 L-80 1121 L-79.5 1122 L-79 1121 M-130 1143 L-131.5 1143 L-132.5 1144 L-133.5 1143 L-139.5 1143 L-141.5 1141 L-144.5 1141 L-145.5 1142 L-146.5 1141 L-147 1141.5 L-147 1142.5 L-147.5 1143 L-149.5 1141 L-150 1141.5 L-150.25 1142.75 L-153 1142 L-153.5 1141 L-154 1141.5 L-154 1142 L-156.5 1142 L-157.5 1143 L-158.5 1142 L-160 1142.38 L-163 1142.5 L-166.5 1142 L-167.5 1143 L-168.5 1142 L-169.5 1143 L-172.5 1142 L-178 1136.5 L-178 1135.5 L-179 1134.5 L-178 1133.5 L-179 1132.5 L-178.625 1131 L-177.5 1128 L-177 1125.5 L-175.5 1124 L-172.25 1122.75 L-171.75 1121.25 L-169.5 1121 L-167.5 1119 L-166.5 1120 L-165.5 1119 L-164.5 1120 L-162.5 1118 L-159 1116.75 L-152 1115.5 L-147 1114.25 L-145.5 1114 L-144.5 1113 L-143.5 1114 L-141.5 1114 L-140.5 1113 L-139.5 1114 L-138.5 1113 L-136 1112.38 L-132 1112.63 L-128.5 1112 L-127.5 1111 L-126.5 1112 L-125 1111.63 L-122 1110.38 L-118 1110.75 L-113 1109.25 L-109.5 1108 L-108.5 1109 L-107.5 1108 L-106.5 1109 L-105.5 1108 L-101.5 1107 L-101 1106.5 L-102 1105.5 L-101 1104.5 L-100 1100.5 L-101 1099.5 L-100 1098.5 L-100 1095.5 L-99 1094.5 L-100 1093.5 L-100 1085.5 L-99 1084.5 L-100 1083.5 L-99 1079.5 L-100 1078.5 L-99 1077.5 L-99 1066.5 L-97 1064.5 L-98 1063.5 L-97 1057.5 L-97.5 1057 L-98.5 1058 L-101.5 1058 L-102.5 1059 L-103.5 1058 L-107 1058.63 L-108.5 1059 L-109.5 1058 L-110.5 1059 L-112.5 1059 L-113.5 1058 L-114.5 1059 L-115.5 1058 L-116.5 1059 L-120 1059.63 L-121.5 1060 L-122.5 1059 L-123.5 1060 L-124.5 1059 L-135.5 1060 L-136.5 1059 L-137 1059.5 L-137 1060.5 L-137.5 1061 L-138.5 1060 L-139.75 1060.25 L-141 1064.5 L-142.5 1066 L-145.5 1067 L-149 1063.5 L-149.625 1060 L-150.25 1058.25 L-151.5 1058 L-152.5 1057 L-153.5 1058 L-157 1054.5 L-157 1049.5 L-156 1048.5 L-157 1047.5 L-157 1043.5 L-158 1042.5 L-157 1041.5 L-157.5 1039 L-161.5 1026 L-161.375 1022 L-161 1020.5 L-163 1018.5 L-162 1017.5 L-162.5 1017 L-163.75 1016.75 L-165.25 1012 L-165.25 1007 L-163.625 1003 L-163 1000.5 L-162 999.5 L-163 998.5 L-162 997.5 L-161.75 996.25 L-160.5 996 L-159 994.5 L-158.5 993 L-152.625 982 L-150.5 977 L-142.5 961 L-142 959.5 L-140 957.5 L-140 955.5 L-138 953.5 L-136.75 949.25 L-135.25 948.75 L-134 944 L-133 943.5 L-134 943 L-134 941.5 L-133.5 941 L-132.5 942 L-131 940.5 L-131 939.5 L-129 937.5 L-130 936.5 L-129.5 936 L-128.5 936 L-128 935.5 L-129 934.5 L-127 932.5 L-126 929.5 L-125 928.5 L-126 927.5 L-125 926.5 L-126 925.5 L-125.75 924.25 L-124.5 924 L-123 922.5 L-123.5 922 L-125 922 L-124.5 921 L-123.25 920.75 L-123 918.5 L-122 917.5 L-124 915.5 L-122.5 914 L-121.5 914 L-121 913.5 L-122 912.5 L-122 911.5 L-121 910.5 L-122 909.5 L-120 907.5 L-120.375 906 L-120.75 903.25 L-119.25 902.75 L-119.5 901 L-120 899.5 L-118 897.5 L-118 896 L-117 895.5 L-118 895 L-117.75 893.25 L-116.25 892.75 L-115.75 891 L-115 886.5 L-116 885.5 L-115.5 885 L-114.125 884.75 L-115 874.5 L-110.5 870 L-109 869.5 L-107 868.625 L-104.5 868 L-103.5 869 L-102.5 868 L-101.5 869 L-99 868.625 L-94 868.75 L-92.5 869 L-91.5 868 L-90.5 869 L-89.5 869 L-88.5 868 L-87.5 869 L-76 869.625 L-65.5 871 L-64.5 872 L-63.5 871 L-62.5 872 L-61.5 871 L-60.5 871 L-59.5 872 L-58.5 871 L-57.5 872 L-53.5 872 L-52.5 871 L-51.5 872 L-50.5 871 L-50 871.5 L-49.75 872.75 L-46.5 873 L-45.5 872 L-44.5 873 L-35.5 873 L-33.5 875 L-32.5 874 L-31.5 875 L-28.5 875 L-27.5 874 L-26.5 875 L-25 873.5 L-25.25 871.25 L-35 868.625 L-44.5 867 L-46.5 865 L-47.5 865 L-48.5 864 L-49.5 865 L-50 864.5 L-50 863.5 L-51.5 862 L-53.5 862 L-54.5 861 L-55.5 862 L-56.5 862 L-57 861.5 L-56 860.5 L-57.5 859 L-61.5 857 L-63 855.5 L-64.5 853 L-67.5 849 L-69 846.5 L-71 844.5 L-71.25 842.25 L-72.75 841.75 L-72.5 840 L-72 838.5 L-72.5 838 L-73.5 839 L-74.75 838.75 L-75 837.5 L-74 836.5 L-75 835.5 L-75.375 834 L-79.25 824 L-81.5 815 L-89 788.5 L-88 787.5 L-89 786.5 L-88 785.5 L-88 783.5 L-89 782.5 L-88 781.5 L-88.75 777 L-88.5 775 L-88.625 768 L-89 766.5 L-88 765.5 L-89 764.5 L-89 762.5 L-88 761.5 L-89 760.5 L-89 750.5 L-88 749.5 L-89 748.5 L-85.75 733.25 L-84.5 733 L-84 732.5 L-85 731.5 L-82 728.5 L-81.5 727 L-80.5 725 L-80 723.5 L-79 722.5 L-80 721.5 L-76 717.5 L-76 716.5 L-65.5 706 L-64.5 706 L-63 704.5 L-60 699.5 L-48.5 688 L-47.5 688 L-44 684.5 L-43.75 683.25 L-42.5 683 L-39.5 680 L-36.25 679.75 L-36 678.5 L-34.5 677 L-33 676.5 L-26 672.5 L-24.5 672 L-24 672 L-24.5 671 L-35 673.75 L-36.5 674 L-38.5 676 L-41 675.5 L-44 675.5 L-46.5 676 L-48.5 678 L-81 681.625 L-104 685.75 L-107 686.625 L-109 687.375 L-112.5 688 L-114.5 686 L-116.5 686 L-119 683.5 L-119 682.5 L-121 680.5 L-120 679.5 L-120 677.5 L-115.5 673 L-109.5 672 L-107.5 670 L-106.5 671 L-105.5 670 L-104.5 671 L-99.5 670 L-98.5 669 L-97.5 670 L-95.5 670 L-94.5 669 L-93.5 670 L-93 669.5 L-92.75 668.25 L-91 668.5 L-89.5 669 L-88.5 668 L-87.5 669 L-87 668.5 L-86.75 667.25 L-82.5 666 L-81.5 667 L-80.5 666 L-73.5 665 L-72.5 666 L-71.5 665 L-69 664.5 L-63 664.625 L-60.5 664 L-59.5 665 L-58.5 664 L-55.125 663.75 L-54.25 656 L-53 651.5 L-52 650.5 L-53 649.5 L-52 643.5 L-51 642.5 L-52 641.5 L-51 640.5 L-49.5 634 L-47 624.5 L-45 622.5 L-44.375 619 L-44 617.5 L-43 616.5 L-44 615.5 L-43 614.5 L-43 611.5 L-41 609.5 L-41 607.5 L-39 605.5 L-40 604.5 L-39 603.5 L-38.75 601.25 L-37.25 600.75 L-37.75 597.25 L-36.25 596.75 L-36.75 593.25 L-35.5 593 L-35 592.5 L-36 591.5 L-36 590.5 L-35.5 590 L-34.5 591 L-34 590.5 L-34.625 588 L-34.625 586 L-33.75 583.25 L-32.5 583 L-32 582.5 L-33 581.5 L-32.625 580 L-30.75 575.25 L-29.5 575 L-29 574.5 L-30 573.5 L-28 571.5 L-26.75 567.25 L-25.25 566.75 L-24.75 565.125 L-18 565.75 L-9 572.5 L-6.5 574 L-3 577.5 L-2.75 578.75 L6.75 586.25 L7 587.5 L10.5 591 L11.5 591 L12.5 592 L13.5 591 L14 591.5 L16 595.5 L18 597 L18 597.5 L18.5 598 L19 598 L22.5 602 L23.5 602 L24 602.5 L23 603.5 L24.5 605 L26.5 605 L27 605.5 L26 606.5 L28.5 609 L29.5 609 L30.5 608 L31.5 609 L34.5 610 L36.5 608 L38.5 608 L40 606.5 L40.25 605.25 L41.75 604.75 L42.25 603.25 L43.5 603 L46 600.5 L46 599.5 L48.5 597 L49.75 596.75 L50 595.5 L51.5 594 L52.75 593.75 L53 592.5 L53.5 592 L54.5 593 L55 592.5 L55 590.5 L56.5 589 L57.5 590 L58 589.5 L58.25 588.25 L59.5 588 L62 585 L62.5 585 L63 584.5 L63 584 L64 583.5 L63 583 L63.25 582.25 L64.75 581.75 L65 580.5 L66.5 579 L67.5 580 L70 577.5 L70 576.5 L70.5 576 L71.5 577 L73 575.5 L73 574.5 L78.5 569 L82.5 568 L83.5 569 L84.5 568 L85.5 569 L88.5 570 L91 572.5 L92.25 577 L93.75 586 L96 594.5 L97 595.5 L96 596.5 L97 597.5 L98 602.5 L99 603.5 L98 604.5 L99 605.5 L104.5 636 L106.75 646 L108.25 650.75 L112 650.625 L127 649 L126.5 648 L124 648 L124.5 647 L126.5 647 L127.5 646 L128.5 647 L134.75 647.875 L135.25 646.25 L136.75 646.25 L137 647.5 L137.5 648 L138.5 647 L139.5 648 L140 647.5 L140.25 646.25 L144 646.5 L146.5 647 L148.5 645 L151.5 646 L152.5 647 L153.5 646 L155 646.375 L158.5 647 L159.5 646 L160.5 647 L161.5 646 L162.5 647 L170.5 648 L171.5 647 L172.5 648 L174.5 648 L175.5 649 L176.5 648 L178.5 650 L200.5 654 L203 656.5 L203 657.5 L205 659.5 L204.25 665 L202.75 668.75 L196 671.5 L192.5 672 L191.5 673 L190.5 672 L187.5 673 L186.5 672 L185.5 673 L184.5 672 L180.5 671 L179 669.5 L179 668.5 L177.5 667 L165 663.875 L123.5 664 L122.5 665 L121.5 664 L120.5 665 L110 665.625 L100.5 667 L99.5 666 L98.5 667 L97.5 666 L80 667.875 L67.5 667 L66.5 668 L65.5 667 L64.5 668 L63.5 668 L62.5 667 L61 668.5 L61.25 669.75 L62.5 670 L63.5 671 L64.5 670 L65 670.5 L65 671.5 L66.5 673 L68.5 673 L71.5 676 L72.5 675 L73.5 676 L77.75 678.25 L78.25 679.75 L79.75 680.25 L80 681.5 L80.5 682 L81.5 681 L82 681.5 L82 682.5 L86.5 687 L87.75 687.25 L88.25 688.75 L89.5 689 L91 690.5 L91.25 691.75 L92.5 692 L94 693.5 L98 699.5 L101.5 703 L102.5 703 L104 704.5 L105.5 707 L108.5 711 L110 713.5 L112 715.5 L112 717.5 L114 719.5 L114.25 720.75 L115.5 721 L116 721.5 L115 722.5 L115.5 723 L116.75 723.25 L117 725.5 L119 727.5 L120 733.5 L122 735.5 L121 736.5 L123 740.5 L124 741.5 L123 742.5 L125 744.5 L127.25 758 L128 777.5 L127 778.5 L128 779.5 L127 780.5 L126 792.5 L125 793.5 L126 794.5 L125 795.5 L124.5 799 L124.375 807 L118.5 821 L114.5 828 L113.75 829.75 L112.5 830 L111 831.5 L110.5 833 L109.5 835 L109 836.5 L103.5 842 L102.25 842.25 L101 846.5 L100.5 847 L99.5 846 L97.5 848 L95.5 849 L92.5 851 L90 852.375 L82 855.5 L79.5 856 L77.5 858 L69.5 859 L68.5 860 L67.5 859 L66.5 860 L63.5 861 L62.5 860 L61.5 861 L60 861.375 L57 862.625 L55.5 863 L54.5 862 L53.5 863 L49.5 864 L49 864.5 L51 866.5 L51 868.5 L50 869.5 L51 870.5 L52.25 874 L61.5 874 L62.5 875 L63.5 874 L69.5 874 L70.5 873 L71.5 874 L73 874.5 L74.75 874.75 L75 873.5 L75.5 873 L76.5 874 L77.5 873 L79.5 873 L80.5 874 L81.5 873 L101.5 874 L103.5 876 L104.5 875 L105.5 875 L106 875.5 L105 876.5 L105.5 877 L137 881.5 L151.5 881 L157 886.5 L158 890.5 L159 891.5 L158 892.5 L159 893.5 L158 894.5 L157 898.5 L154 901.5 L156 903.5 L155 907.5 L155.5 908 L156.5 907 L157 907.5 L159 917.5 L158 918.5 L158.5 919 L159.75 919.25 L162 930.5 L163 931.5 L162 932.5 L163 933.5 L163 934.5 L164 935.5 L163 936.5 L164 937.5 L164.625 941 L165 942.5 L164 943.5 L164.5 944 L165.5 944 L166 944.5 L165 945.5 L165.5 946 L166.5 946 L167 946.5 L166 947.5 L167 950 L166 950.5 L166.5 951 L167 951 L168 952.5 L167 953.5 L169 955.5 L174.625 998 L174.375 1002 L174 1003.5 L175 1004.5 L174 1005.5 L174 1007.5 L175 1008.5 L174 1009.5 L173 1012.5 L172 1013.5 L173 1014.5 L168.5 1019 L167 1019.5 L165 1020.5 L163.5 1021 L163 1021.5 L164 1022.5 L163.5 1023 L162.25 1023.25 L161 1026 L160 1026.5 L160.5 1027 L161 1027 L160.5 1028 L159.25 1028.25 L158.75 1029.75 L157.5 1030 L157 1030.5 L158 1031.5 L157.5 1032 L156.5 1032 L156 1032.5 L157 1033.5 L155.5 1035 L154.5 1035 L152 1037.5 L153 1038.5 L152.5 1039 L151.25 1039.25 L151 1040.5 L150.5 1041 L149.5 1040 L146 1043.5 L146 1045.5 L145.5 1046 L144.5 1045 L143.5 1046 L142.25 1046.25 L141.75 1047.75 L138.5 1049 L138 1049.5 L139 1050.5 L138.5 1051 L137 1051 L136.5 1050 L136 1050.5 L136 1051 L134.5 1051 L134 1051.5 L135 1052.5 L136 1059.5 L134 1061.5 L133.75 1062.75 L132.5 1063 L130.5 1065 L126.5 1066 L125.5 1065 L123.5 1067 L122.5 1066 L116 1065.38 L102.25 1062.75 L102 1061.5 L101.5 1061 L99.5 1063 L98 1062 L97.5 1061 L97 1061.5 L97 1062 L89.5 1062 L88.5 1061 L87.5 1062 L87 1061.5 L87 1060.5 L86.5 1060 L85.5 1061 L82.25 1061.25 L82 1064.5 L81.5 1065 L80.5 1064 L80 1064.5 L80 1066.5 L81 1067.5 L79 1069.5 L80 1070.5 L79.5 1071 L78.5 1071 L78 1071.5 L79 1072.5 L78 1073.5 L79 1074.5 L79 1078 L78 1077.5 L78 1075 L77 1075.5 L77 1079.5 L78 1080.5 L77.5 1081 L76.5 1081 L76 1081.5 L77 1082.5 L76 1083.5 L77 1084.5 L76 1085.5 L77 1086.5 L77 1088.5 L75 1090.5 L74.5 1093 L74.25 1095.75 L75.75 1096.25 L75.625 1114 L76 1115.5 L78.5 1118 L79.5 1117 L80.5 1118 L82.5 1118 L83.5 1117 L84.5 1118 L88 1118.5 L108 1122.5 L111 1123.5 L113.5 1124 L114.5 1125 L115.5 1124 L116.5 1125 L118 1125.5 L126.75 1129.25 L128.25 1133 L128.25 1139 L128 1140.5 L124.5 1144 L98.5 1145 L97.5 1146 L96.5 1145 L95.25 1145.25 L95 1146.5 L95 1147 L94 1146.5 L93.75 1145 L71.5 1145 L70.5 1144 L69.5 1145 L68.5 1144 L67.5 1145 L21.5 1145 L20.5 1146 L19.5 1145 L18.5 1145 L17.5 1146 L16.5 1145 L14.5 1147 L13.5 1147 L12.5 1146 L11.5 1147 L10.5 1146 L8 1146.5 L4 1146.5 L-3.5 1145 L-7.5 1141 L-10.5 1140 L-12 1138.5 L-11 1137.5 L-11.5 1137 L-12.5 1137 L-15 1134.5 L-14 1125.5 L-9.5 1121 L-8.5 1122 L-7.5 1121 L-2.25 1119.75 L-2.25 1118.25 L-3.5 1118 L-4 1117.5 L-3 1116.5 L-4.5 1115 L-5.5 1115 L-10 1110.5 L-10 1109.5 L-10.5 1109 L-11.5 1110 L-12 1109.5 L-12 1107 L-13 1107.5 L-13 1108.5 L-15.5 1111 L-16.75 1111.25 L-17.25 1113.75 L-18.75 1114.25 L-19.25 1115.75 L-21.5 1116 L-24 1118.5 L-24.25 1119.75 L-27.5 1121 L-28 1121 L-27.5 1122 L-26.5 1122 L-24 1124.5 L-23.625 1126 L-22.375 1129 L-22.375 1131 L-23.625 1134 L-24 1135.5 L-25.5 1137 L-26.5 1137 L-28.5 1139 L-77.5 1141 L-78.5 1142 L-79.5 1141 L-84.5 1141 L-85.5 1140 L-86.5 1141 L-107 1141.5 L-110.5 1141 L-111.5 1142 L-112.5 1141 L-113 1141.5 L-113 1142.5 L-113.5 1143 L-114.5 1142 L-115.75 1142.25 L-116 1143.5 L-116.5 1144 L-117.5 1143 L-123.5 1142 L-124.5 1143 L-125.5 1142 L-126.5 1143 L-129 1143 L-129.5 1142 L-130 1142.5 L-130 1143 M2 1145 L2 1144 L1 1144 L1 1145 L2 1145 M6 1146 L6 1145 L5 1145 L5 1146 L6 1146 "/></g>
</svg>