<svg width="1404" height="1872" viewBox="-702 0 1404 1872" xmlns="http://www.w3.org/2000/svg" xmlns:xlink="http://www.w3.org/1999/xlink" version="1.2" baseProfile="tiny"><title>Erix World</title>
<g><path fill="#000000" fill-rule="evenodd" d="M79 1158 L78 1158 L78 1157 L79 1157 L79 1158 "/></g><g><path fill="#000000" fill-rule="evenodd" d="M57 1157 L56 1157 L56 1156 L57 1156 L57 1157 "/></g><g><path fill="#000000" fill-rule="evenodd" d="M54 1156 L53.5 1157 L53 1156 L54 1156 "/></g><g><path fill="#000000" fill-rule="evenodd" d="M159 1136 L158 1136 L158 1135 L159 1135 L159 1136 "/></g><g><path fill="#000000" fill-rule="evenodd" d="M156 1136 L155 1136 L155 1135 L156 1135 L156 1136 "/></g><g><path fill="#000000" fill-rule="evenodd" d="M152.5 1136 L151 1136 L151.5 1135 L153 1135 L152.5 1136 "/></g><g><path fill="#000000" fill-rule="evenodd" d="M-108 1134 L-109 1134 L-109 1133 L-108 1133 L-108 1134 "/></g><g><path fill="#000000" fill-rule="evenodd" d="M-190 1135 L-189.75 1134.25 L-188 1135 L-190 1135 "/></g><g><path fill="#000000" fill-rule="evenodd" d="M-175 1132 L-176 1132 L-176 1131 L-175 1131 L-175 1132 "/></g><g><path fill="#000000" fill-rule="evenodd" d="M-178 1132 L-179 1132 L-179 1131 L-178 1131 L-178 1132 "/></g><g><path fill="#000000" fill-rule="evenodd" d="M-192 1132 L-193 1132 L-193 1131 L-192 1131 L-192 1132 "/></g><g><path fill="#000000" fill-rule="evenodd" d="M-198 1132 L-199 1132 L-199 1131 L-198 1131 L-198 1132 "/></g><g><path fill="#000000" fill-rule="evenodd" d="M-225 1135 L-226 1135 L-226 1134 L-225 1134 L-225 1135 "/></g><g><path fill="#000000" fill-rule="evenodd" d="M-228 1135 L-229 1135 L-229 1134 L-228 1134 L-228 1135 "/></g><g><path fill="#000000" fill-rule="evenodd" d="M-297 1126 L-298 1126 L-298 1125 L-297 1125 L-297 1126 "/></g><g><path fill="#000000" fill-rule="evenodd" d="M-297 1114 L-298 1114 L-298 1113 L-297 1113 L-297 1114 "/></g><g><path fill="#000000" fill-rule="evenodd" d="M-297 1110 L-298 1110 L-298 1109 L-297 1109 L-297 1110 "/></g><g><path fill="#000000" fill-rule="evenodd" d="M-298 1105 L-299 1105 L-299 1104 L-298 1104 L-298 1105 "/></g><g><path fill="#000000" fill-rule="evenodd" d="M-297 1104 L-298 1103 L-298 1102 L-297 1102.5 L-297 1104 "/></g><g><path fill="#000000" fill-rule="evenodd" d="M-298 1101 L-299 1101 L-299 1100 L-298 1100 L-298 1101 "/></g><g><path fill="#000000" fill-rule="evenodd" d="M-297 1086 L-298 1085 L-298 1084 L-297 1084.5 L-297 1086 "/></g><g><path fill="#000000" fill-rule="evenodd" d="M269 1069 L268 1069 L268 1068 L269 1068 L269 1069 "/></g><g><path fill="#000000" fill-rule="evenodd" d="M269 1062 L268 1062 L268 1061 L269 1061 L269 1062 "/></g><g><path fill="#000000" fill-rule="evenodd" d="M246 1049 L245 1048.5 L245 1045 L246 1045.5 L246 1049 "/></g><g><path fill="#000000" fill-rule="evenodd" d="M246 1042 L245 1042 L245 1041 L246 1041 L246 1042 "/></g><g><path fill="#000000" fill-rule="evenodd" d="M246 1038 L245 1038 L245 1037 L246 1037 L246 1038 "/></g><g><path fill="#000000" fill-rule="evenodd" d="M-297 1079 L-298 1078 L-298 1077 L-297 1077.5 L-297 1079 "/></g><g><path fill="#000000" fill-rule="evenodd" d="M-297 1076 L-298 1076 L-298 1075 L-297 1075 L-297 1076 "/></g><g><path fill="#000000" fill-rule="evenodd" d="M272 995 L271 995 L271 994 L272 994 L272 995 "/></g><g><path fill="#000000" fill-rule="evenodd" d="M272 991 L271 991 L271 990 L272 990 L272 991 "/></g><g><path fill="#000000" fill-rule="evenodd" d="M272 977 L271 977 L271 976 L272 976 L272 977 "/></g><g><path fill="#000000" fill-rule="evenodd" d="M270 973 L271.5 973 L272 973.5 L271.5 974 L270 974 L270 973 "/></g><g><path fill="#000000" fill-rule="evenodd" d="M271 960 L270 960 L270 959 L271 959 L271 960 "/></g><g><path fill="#000000" fill-rule="evenodd" d="M271 955 L270 955 L270 954 L271 954 L271 955 "/></g><g><path fill="#000000" fill-rule="evenodd" d="M-275 963 L-274 963.5 L-275 964 L-275 963 "/></g><g><path fill="#000000" fill-rule="evenodd" d="M-298 959 L-299 958 L-299 957 L-298 957.5 L-298 959 "/></g><g><path fill="#000000" fill-rule="evenodd" d="M-298 956 L-299 955.5 L-299 953 L-298 953.5 L-298 956 "/></g><g><path fill="#000000" fill-rule="evenodd" d="M-299 953 L-300 953 L-300 952 L-299 952 L-299 953 "/></g><g><path fill="#000000" fill-rule="evenodd" d="M271 951 L270 951 L270 950 L271 950 L271 951 "/></g><g><path fill="#000000" fill-rule="evenodd" d="M271 948 L270 947 L270 946 L271 946.5 L271 948 "/></g><g><path fill="#000000" fill-rule="evenodd" d="M270 909 L269 908 L269 907 L270 907.5 L270 909 "/></g><g><path fill="#000000" fill-rule="evenodd" d="M270 904 L269 903.5 L269 901 L270 901.5 L270 904 "/></g><g><path fill="#000000" fill-rule="evenodd" d="M247 933 L246 933 L246 932 L247 932 L247 933 "/></g><g><path fill="#000000" fill-rule="evenodd" d="M247 929 L246 929 L246 928 L247 928 L247 929 "/></g><g><path fill="#000000" fill-rule="evenodd" d="M247 926 L246.5 926 L246 925.5 L247 925 L247 926 "/></g><g><path fill="#000000" fill-rule="evenodd" d="M247 905 L246 905 L246 904 L247 904 L247 905 "/></g><g><path fill="#000000" fill-rule="evenodd" d="M-299 946 L-300 946 L-300 945 L-299 945 L-299 946 "/></g><g><path fill="#000000" fill-rule="evenodd" d="M-299 943 L-300 943 L-300 942 L-299 942 L-299 943 "/></g><g><path fill="#000000" fill-rule="evenodd" d="M-298.5 942 L-300 940.5 L-298.5 939 L-298 939.5 L-298 941.5 L-298.5 942 "/></g><g><path fill="#000000" fill-rule="evenodd" d="M-298.25 928.75 L-299.75 928.75 L-299.5 927 L-299 925.5 L-299 925 L-298 925.5 L-298.25 928.75 "/></g><g><path fill="#000000" fill-rule="evenodd" d="M-298 924 L-299 923.5 L-299 917 L-298 917.5 L-298 924 "/></g><g><path fill="#000000" fill-rule="evenodd" d="M-298 916 L-299 916 L-299 915 L-298 915 L-298 916 "/></g><g><path fill="#000000" fill-rule="evenodd" d="M-298 913 L-299 913 L-299 912 L-298 912 L-298 913 "/></g><g><path fill="#000000" fill-rule="evenodd" d="M-298 910 L-299 910 L-299 909 L-298 909 L-298 910 "/></g><g><path fill="#000000" fill-rule="evenodd" d="M271 813 L270 813 L270 812 L271 812 L271 813 "/></g><g><path fill="#000000" fill-rule="evenodd" d="M271 804 L270 803.5 L270 801 L271 801.5 L271 804 "/></g><g><path fill="#000000" fill-rule="evenodd" d="M271 785 L270 785 L270 784 L271 784 L271 785 "/></g><g><path fill="#000000" fill-rule="evenodd" d="M271 770 L270 770 L270 769 L271 769 L271 770 "/></g><g><path fill="#000000" fill-rule="evenodd" d="M270 762 L271 762.5 L270 763 L270 762 "/></g><g><path fill="#000000" fill-rule="evenodd" d="M273 715 L272 715 L272 714 L273 714 L273 715 "/></g><g><path fill="#000000" fill-rule="evenodd" d="M273 705 L272 705 L272 704 L273 704 L273 705 "/></g><g><path fill="#000000" fill-rule="evenodd" d="M273 703 L272 702 L272 701 L273 701.5 L273 703 "/></g><g><path fill="#000000" fill-rule="evenodd" d="M273 699 L272 698 L272 697 L273 697.5 L273 699 "/></g><g><path fill="#000000" fill-rule="evenodd" d="M247 757 L246 757 L246 756 L247 756 L247 757 "/></g><g><path fill="#000000" fill-rule="evenodd" d="M-273 700 L-274 699 L-274 698 L-273 698.5 L-273 700 "/></g><g><path fill="#000000" fill-rule="evenodd" d="M273 696 L272 695 L272 694 L273 694.5 L273 696 "/></g><g><path fill="#000000" fill-rule="evenodd" d="M273 693 L272 693 L272 692 L273 692 L273 693 "/></g><g><path fill="#000000" fill-rule="evenodd" d="M273 690 L272 689 L272 688 L273 688.5 L273 690 "/></g><g><path fill="#000000" fill-rule="evenodd" d="M273 682 L272 682 L272 681 L273 681 L273 682 "/></g><g><path fill="#000000" fill-rule="evenodd" d="M270 660 L269 660 L269 659 L270 659 L270 660 "/></g><g><path fill="#000000" fill-rule="evenodd" d="M269.5 648 L269 647.5 L269 645.5 L269.5 645 L271 646.5 L269.5 648 "/></g><g><path fill="#000000" fill-rule="evenodd" d="M270 640 L269 640 L269 639 L270 639 L270 640 "/></g><g><path fill="#000000" fill-rule="evenodd" d="M-296 679 L-297 678 L-297 677 L-296 677.5 L-296 679 "/></g><g><path fill="#000000" fill-rule="evenodd" d="M-296 659 L-297 659 L-297 658 L-296 658 L-296 659 "/></g><g><path fill="#000000" fill-rule="evenodd" d="M-296 655 L-297 655 L-297 654 L-296 654 L-296 655 "/></g><g><path fill="#000000" fill-rule="evenodd" d="M-274 655 L-275 654 L-275 653 L-274 653.5 L-274 655 "/></g><g><path fill="#000000" fill-rule="evenodd" d="M270 631 L269 631 L269 630 L270 630 L270 631 "/></g><g><path fill="#000000" fill-rule="evenodd" d="M270 621 L269 621 L269 620 L270 620 L270 621 "/></g><g><path fill="#000000" fill-rule="evenodd" d="M270 608 L269 608 L269 607 L270 607 L270 608 "/></g><g><path fill="#000000" fill-rule="evenodd" d="M-59 591 L-60 591 L-60 590 L-59 590 L-59 591 "/></g><g><path fill="#000000" fill-rule="evenodd" d="M-90 607 L-90.5 608 L-91 607 L-90 607 "/></g><g><path fill="#000000" fill-rule="evenodd" d="M-82 591 L-83 591 L-83 590 L-82 590 L-82 591 "/></g><g><path fill="#000000" fill-rule="evenodd" d="M-86 591 L-87 591 L-87 590 L-86 590 L-86 591 "/></g><g><path fill="#000000" fill-rule="evenodd" d="M-98.5 590 L-100 590 L-99.5 589 L-98 589 L-98.5 590 "/></g><g><path fill="#000000" fill-rule="evenodd" d="M-96 592 L-96 591 L-97 591 L-97 592 L-96 592 M-105 607 L-105 606 L-106 606 L-106 607 L-105 607 M-100.5 607 L-100 606 L-102.5 606 L-103 607 L-100.5 607 M-98 607 L-98 606 L-99 606 L-99 607 L-98 607 M-95 607 L-95 606 L-96 606 L-96 607 L-95 607 M-92 607 L-92 606 L-93 606 L-93 607 L-92 607 M-52 606 L-52 605 L-53 605 L-53 606 L-52 606 M-48.5 606 L-48 605 L-49.5 605 L-50 606 L-48.5 606 M-46 606 L-46 605 L-47 605 L-47 606 L-46 606 M-40 606 L-40 605 L-41 605 L-41 606 L-40 606 M147 606 L147 605 L146 605 L146 606 L147 606 M157 606 L157 605 L156 605 L156 606 L157 606 M160 606 L160 605 L159 605 L159 606 L160 606 M249 607 L249 606 L248 606 L248 607 L249 607 M-295 687 L-295 685.5 L-296 685 L-296 686 L-295 687 M-295 690 L-295 689 L-296 689 L-296 690 L-295 690 M247 674 L247 673 L246 673 L246 674 L247 674 M269 673 L269 672 L268 672 L268 673 L269 673 M-295 701 L-295 699.5 L-296 699 L-296 700 L-295 701 M-295 706 L-295 705 L-296 705 L-296 706 L-295 706 M-294 745 L-294 744 L-295 744 L-295 745 L-294 745 M-294 748 L-294 747 L-295 747 L-295 748 L-294 748 M-294 751 L-294 749.5 L-295 749 L-295 750 L-294 751 M-294 757 L-294 756 L-295 756 L-295 757 L-294 757 M248 751 L248 748.5 L247 748 L247 750.5 L248 751 M248 754 L248 752.5 L247 752 L247 753 L248 754 M-294 782 L-294 781 L-295 781 L-295 782 L-294 782 M248 910 L248 909 L247 909 L247 910 L248 910 M248 935 L248 934 L247 934 L247 935 L248 935 M248 942 L248 940.5 L247 940 L247 941 L248 942 M248 948 L248 946.5 L247 946 L247 947 L248 948 M-297 962 L-297 961 L-298 961 L-298 962 L-297 962 M-297 964 L-297 963 L-298 963 L-298 964 L-297 964 M-297 967 L-297 966 L-298 966 L-298 967 L-297 967 M-275 977 L-275 974.5 L-276 974 L-276 976.5 L-275 977 M-275 979 L-275 978 L-276 978 L-276 979 L-275 979 M-275 983 L-275 981.5 L-276 981 L-276 982 L-275 983 M-275 985 L-275 984 L-276 984 L-276 985 L-275 985 M-275 988 L-275 986.5 L-276 986 L-276 987 L-275 988 M-275 991 L-275 990 L-276 990 L-276 991 L-275 991 M-275 993 L-275 992 L-276 992 L-276 993 L-275 993 M-275 997 L-275 996 L-276 996 L-276 997 L-275 997 M-275 1003 L-275 1001.5 L-276 1001 L-276 1002 L-275 1003 M270 968 L270 967 L269 967 L269 968 L270 968 M-296 1040 L-296 1038.5 L-297 1038 L-297 1039 L-296 1040 M-296 1051 L-296 1049.5 L-297 1049 L-297 1050 L-296 1051 M-296 1056 L-296 1055 L-297 1055 L-297 1056 L-296 1056 M-296 1062 L-296 1060.5 L-297 1060 L-297 1061 L-296 1062 M-296 1068 L-296 1066.5 L-297 1066 L-297 1067 L-296 1068 M247 1021 L247 1020 L246 1020 L246 1021 L247 1021 M268 1043 L268 1041.5 L267 1041 L267 1042 L268 1043 M268 1047 L268 1046 L267 1046 L267 1047 L268 1047 M268 1049 L268 1048 L267 1048 L267 1049 L268 1049 M268 1051 L268 1050 L267 1050 L267 1051 L268 1051 M268 1057 L268 1056 L267 1056 L267 1057 L268 1057 M-208 1136 L-208 1135 L-209 1135 L-209 1136 L-208 1136 M-194 1136 L-194 1135 L-195 1135 L-195 1136 L-194 1136 M-188 1135 L-185.25 1134.25 L-185 1135.5 L-184 1136 L-184 1134.5 L-183.5 1134 L-182.5 1135 L-169.5 1134 L-168.5 1133 L-167.5 1134 L-155.5 1134 L-154.5 1133 L-153.5 1134 L-152.5 1134 L-151.5 1133 L-150.5 1134 L-149.5 1133 L-148.5 1134 L-147.5 1133 L-146.5 1134 L-145.5 1133 L-136.5 1133 L-135.5 1134 L-134.5 1133 L-133.5 1134 L-132.5 1133 L-131 1133.5 L-129 1133.5 L-127.5 1133 L-127 1133.5 L-128 1134.5 L-127.5 1135 L-126.25 1134.75 L-126 1133.5 L-125.5 1133 L-124.5 1134 L-123.5 1133 L-119.5 1133 L-119 1133.5 L-120 1134.5 L-119.5 1135 L-113.5 1134 L-112.5 1135 L-111.5 1134 L-110.5 1135 L-106.5 1135 L-105.5 1136 L-104.5 1135 L-102.5 1135 L-101.5 1136 L-100.5 1135 L-88.5 1135 L-87.5 1136 L-86.5 1135 L-85 1135.38 L-82 1135.5 L-78.5 1135 L-77.5 1136 L-76.5 1135 L-73.5 1135 L-72.5 1136 L-71.5 1135 L-61.5 1136 L-60.5 1135 L-59.5 1136 L25.5 1136 L26.5 1137 L27.5 1136 L58.5 1136 L59.5 1137 L60.5 1136 L68.5 1136 L69.5 1135 L70.5 1136 L74.5 1135 L75.5 1136 L76.5 1135 L78 1135.25 L84 1135.25 L85.5 1135 L86.5 1136 L87.5 1135 L89.5 1135 L90.5 1136 L91.5 1135 L92.5 1136 L95 1135.63 L100 1135.75 L101.5 1136 L102.5 1135 L103.5 1136 L104.5 1136 L105.5 1135 L106.5 1136 L116 1135.5 L118.5 1136 L119.5 1135 L120.5 1136 L121.5 1135 L126.5 1135 L127.5 1136 L128.5 1135 L129.5 1136 L130.5 1136 L131.5 1135 L132.5 1136 L133.5 1135 L134.5 1136 L136.5 1136 L137.5 1135 L138.5 1136 L139.5 1135 L144.5 1135 L146.5 1137 L148.75 1136.75 L149 1135.5 L150 1135 L150 1135.5 L150.25 1137 L211.5 1137 L212.5 1138 L213.5 1137 L242.75 1137 L244 1133.5 L246.5 1131 L249.5 1131 L251 1129.5 L250 1128.5 L250 1127.5 L251 1126.5 L250 1125.5 L250.5 1124 L250.75 1122 L250.75 1117 L251 1115.5 L250 1114.5 L251 1113.5 L250 1112.5 L251 1111.5 L250 1110.5 L249 1088.5 L250 1087.5 L249 1086.5 L249 1077.5 L248 1076.5 L249 1075.5 L248 1040.5 L247 1039.5 L248 1038.5 L248 1034.5 L247 1033.5 L248 1032.5 L247 1031.5 L247 1030.5 L246 1030 L246 1031.5 L245 1032 L245 1014.5 L246 1013.5 L245 1012.5 L245 997.5 L246 996.5 L245 995.5 L245 994.5 L246 993.5 L245 992.5 L245 988.5 L246 987.5 L245 986.5 L246 985.5 L245 984.5 L246 983.5 L246 982.5 L245 981.5 L246 980.5 L245 979.5 L246 973.5 L245 972.5 L246 971.5 L245 970.5 L245 968.5 L246 967.5 L245 966.5 L246.875 951 L246.625 949 L246 946.5 L248 944.5 L248 943.5 L247.5 943 L246.5 944 L246 943.5 L246.625 940 L246.625 938 L246 934.5 L248 932.5 L248 927.5 L247 926 L248 925.5 L247 925 L247.75 922.25 L246.25 921.75 L246.5 920 L247 918.5 L246 917.5 L246.5 917 L247.75 916.75 L247.75 914.25 L246.5 914 L246 913.5 L247 912.5 L246.5 911 L246.5 909 L247 907.5 L248 906.5 L247 905.5 L248 904.5 L247.75 903.25 L246.5 903 L246 902.5 L247 901.5 L248 891.25 L246.25 890.75 L246.25 889.25 L247.75 888.75 L247.625 887 L247 884.5 L246 883.5 L247 882.5 L247 879.5 L248 878.5 L247 877.5 L246.5 875 L246.25 872.25 L247.5 872 L248 871 L247.5 871 L246.25 870.75 L246.25 859 L246 857.5 L247 856.5 L246 855.5 L247 854.5 L247 852.5 L246 851.5 L247 850.5 L246 849.5 L247 848.5 L246 847.5 L247 846.5 L246 845.5 L247 844.5 L247 841.5 L246 840.5 L247 839.5 L247 825.5 L248 824.5 L247 823.5 L247 822.5 L248 821.5 L247 820.5 L247 803.5 L248 802.5 L247 801.5 L247.625 798 L247.5 794 L248 792.5 L247 791.5 L248 790.5 L247.5 789 L247.375 787 L248 784.5 L247 783.5 L248 782.5 L248 778.5 L247 777.5 L248 776.5 L247.375 774 L247.25 772 L248 767.5 L247 766.5 L248 765.5 L248 763.5 L247.5 763 L246.5 764 L246 763.5 L246 758.5 L247 758 L247 760.5 L248 761 L247.875 755.25 L246 754.75 L246 726.5 L245 725.5 L246 724.5 L245.625 723 L245.5 720 L246 717.5 L245 716.5 L246 715.5 L245 714.5 L245 709.5 L244 708.5 L245 707.5 L245 704.5 L244 703.5 L245 702.5 L245 701.5 L244 700.5 L245 699.5 L245 698.5 L244 697.5 L245 696.5 L244 695.5 L245 694.5 L244 693.5 L245 689.5 L244 688.5 L245 687.5 L245 686.5 L244 685.5 L245 684.5 L245.5 676 L245 673.5 L247 671.5 L246 670.5 L246 669.5 L247 668.5 L246 667.5 L247 662.5 L246 661.5 L247 660.5 L247 644.5 L248 643.5 L247 642.5 L248 641.5 L247 640.5 L248 639.5 L248 638.5 L247 637.5 L248 636.5 L247 635.5 L247.625 633 L247.5 631 L247 629.5 L248 628.5 L247 627.5 L248 626.5 L248.875 612 L248.625 610 L248 607.5 L246.5 606 L245.5 607 L137.5 607 L136.5 606 L135.5 607 L121.5 607 L120.5 606 L119.5 607 L118.5 606 L116.5 606 L115.5 607 L114.5 606 L113.5 607 L112.5 606 L109 606.625 L107 606.5 L105.5 606 L104.5 607 L103.5 606 L29.5 606 L28.5 607 L27.5 606 L25.5 606 L24.5 607 L23.5 606 L22 606.25 L12.5 606 L11.5 607 L10.5 606 L9.5 607 L8.5 606 L7.5 607 L-3 606.125 L-8.5 607 L-9.5 606 L-10.5 607 L-60.5 607 L-61.5 606 L-62.5 607 L-66.5 607 L-67.5 606 L-68.5 607 L-69.5 607 L-70.5 606 L-71.5 607 L-77.5 606 L-78.5 607 L-79.5 606 L-90 607 L-90.5 606 L-91 606.5 L-91 607 L-98.5 608 L-99.5 607 L-100.5 608 L-106.5 608 L-107.5 607 L-108.5 608 L-109.5 608 L-110.5 607 L-111.5 608 L-112.5 608 L-113.5 607 L-114.5 608 L-116 607.5 L-118 607.125 L-174.5 608 L-175.5 607 L-176.5 608 L-178.5 608 L-179.5 607 L-180.5 608 L-183.5 608 L-184.5 607 L-185.5 608 L-190.5 608 L-191.5 607 L-192.5 608 L-193.5 607 L-194.5 608 L-195.5 607 L-196.5 608 L-197.5 607 L-198.5 608 L-207.5 608 L-208.5 609 L-209.5 608 L-215 608.75 L-217 608.5 L-219 608.5 L-220.5 609 L-221.5 610 L-222.5 609 L-223.5 609 L-224.5 610 L-225.5 609 L-226.5 610 L-230.5 609 L-231.5 610 L-232.5 609 L-233.5 610 L-234.5 609 L-235.5 610 L-236.5 609 L-237.5 609 L-238.5 610 L-239.5 609 L-240.5 609 L-241.5 610 L-242.5 609 L-269.5 609 L-270.5 608 L-271.5 609 L-275.5 609 L-276.5 608 L-278 609.5 L-277.125 620 L-277.375 622 L-278 624.5 L-277 625.5 L-278 626.5 L-276 655.5 L-277 656.5 L-276 657.5 L-277 658.5 L-276 659.5 L-277 660.5 L-276 661.5 L-277 662.5 L-276.5 666 L-276.625 670 L-276.875 672 L-276 780.5 L-277 781.5 L-276 782.5 L-277 783.5 L-276 784.5 L-277 840.5 L-276 841.5 L-276.5 842 L-277.5 842 L-278 842.5 L-277 843.5 L-277 846.5 L-276 847.5 L-278 849.5 L-277.5 850 L-276.5 850 L-276 850.5 L-277 851.5 L-276 852.5 L-276 853.5 L-277 854.5 L-275 856.5 L-276 857.5 L-276 858.5 L-275 859.5 L-276 860.5 L-275 861.5 L-276 862.5 L-275 874.5 L-274 875.5 L-275 876.5 L-274 877.5 L-275 883.5 L-274 884.5 L-275 885.5 L-275 886.5 L-274 887.5 L-275 888.5 L-274 889.5 L-274.5 898 L-274 901.5 L-275 902.5 L-274 903.5 L-274 919.5 L-275 920.5 L-274 921.5 L-274 926.5 L-275 927.5 L-274 928.5 L-274 931.5 L-275 932.5 L-274 933.5 L-275 934.5 L-274 935.5 L-275 944.5 L-274 945.5 L-275 946.5 L-274 947.5 L-275 948.5 L-275 963 L-276 963.5 L-275.5 964 L-275 964 L-275 966.5 L-274 967.5 L-275 968.5 L-273.125 1036 L-273.625 1039 L-273.5 1041 L-273 1042.5 L-274 1043.5 L-273 1044.5 L-273.5 1046 L-273.75 1048 L-273 1054.5 L-274 1055.5 L-273 1056.5 L-273 1059.5 L-274 1060.5 L-273 1061.5 L-273 1062.5 L-274 1063.5 L-273 1064.5 L-274 1065.5 L-273.625 1067 L-273.5 1070 L-274.5 1073 L-275 1076.5 L-274 1077.5 L-275 1078.5 L-274 1079.5 L-275 1085.5 L-276 1086.5 L-275 1087.5 L-275 1090.5 L-276 1091.5 L-275 1092.5 L-276 1093.5 L-275 1094.5 L-275 1096.5 L-276 1097.5 L-275 1098.5 L-275.875 1109 L-275.5 1111 L-275 1112.5 L-276 1113.5 L-275 1114.5 L-275 1115.5 L-276 1116.5 L-275 1117.5 L-276 1118.5 L-275.625 1120 L-275.25 1123 L-276 1133.5 L-277 1134.5 L-276 1135.5 L-276 1136.5 L-277 1137.5 L-276.5 1138 L-274.5 1138 L-273.5 1139 L-272.5 1138 L-270.5 1138 L-269.5 1139 L-268.5 1138 L-267.5 1139 L-258.5 1138 L-257.5 1137 L-256.5 1138 L-252.25 1137.88 L-252 1136.5 L-251.5 1136 L-250.5 1137 L-249.5 1136 L-248.5 1137 L-247.5 1136 L-246.5 1137 L-245.5 1136 L-221.5 1136 L-221 1135 L-222.5 1135 L-223 1134 L-191 1134.88 L-190 1135 L-188.5 1136 L-188 1135 M-180 1136 L-180 1135 L-181 1135 L-181 1136 L-180 1136 M-122 1135 L-122 1134 L-123 1134 L-123 1135 L-122 1135 M145 1137 L145 1136 L144 1136 L144 1137 L145 1137 M-147 1157 L-147 1156 L-148 1156 L-148 1157 L-147 1157 M-144 1157 L-144 1156 L-145 1156 L-145 1157 L-144 1157 M-142 1157 L-142 1156 L-143 1156 L-143 1157 L-142 1157 M-140 1157 L-140 1156 L-141 1156 L-141 1157 L-140 1157 M-136.5 1157 L-136 1156 L-137.5 1156 L-138 1157 L-136.5 1157 M-132.5 1157 L-132 1156 L-133.5 1156 L-134 1157 L-132.5 1157 M-128.5 1157 L-128 1156 L-129.5 1156 L-130 1157 L-128.5 1157 M8.5 1155 L9 1154 L7.5 1154 L7 1155 L8.5 1155 M53 1156 L48.5 1155 L47.5 1156 L46.5 1155 L44.5 1157 L43.5 1156 L42.5 1156 L41.5 1155 L40.5 1156 L39.5 1155 L36.5 1156 L35.5 1155 L34.5 1156 L33.5 1155 L30.5 1155 L29.5 1156 L28.5 1155 L25.5 1155 L24.5 1156 L23.5 1155 L22.5 1156 L21.5 1155 L19.5 1155 L18.5 1156 L17.5 1155 L10.5 1156 L9.5 1155 L8.5 1156 L6.5 1156 L5.5 1155 L4.5 1156 L3.5 1155 L1 1155.5 L-2.75 1155.75 L-3 1154.5 L-3.5 1154 L-4.5 1155 L-6.5 1155 L-7.5 1156 L-8.5 1155 L-9.5 1156 L-10.5 1156 L-11.5 1155 L-12.5 1156 L-17.5 1156 L-18.5 1157 L-20.5 1155 L-21.5 1156 L-23.5 1156 L-24.5 1157 L-25.5 1156 L-26.5 1157 L-28 1156.75 L-33 1156.75 L-34.5 1157 L-35.5 1156 L-36.5 1157 L-40.5 1156 L-41.5 1157 L-42.5 1156 L-43.5 1157 L-46.5 1157 L-47.5 1156 L-48.5 1157 L-49.5 1156 L-52.5 1157 L-53.5 1156 L-54.5 1157 L-55.5 1156 L-61 1156.88 L-76.5 1156 L-77.5 1157 L-78.5 1156 L-89.5 1157 L-90.5 1156 L-91.5 1157 L-92.5 1156 L-106.5 1156 L-107.5 1157 L-108.5 1156 L-111.5 1156 L-112.5 1157 L-113.5 1156 L-114.5 1157 L-115.5 1157 L-116.5 1158 L-117 1157.5 L-117 1156.5 L-117.5 1156 L-118.5 1157 L-119.5 1157 L-120.5 1158 L-121 1157.5 L-121 1156 L-122 1156.5 L-122 1157.5 L-122.5 1158 L-124.5 1156 L-125 1156.5 L-125 1157.5 L-125.5 1158 L-126.5 1157 L-127.5 1158 L-167.5 1158 L-168.5 1159 L-169.5 1158 L-172 1158.38 L-178 1158.5 L-181.5 1158 L-182.5 1159 L-183.5 1158 L-184.5 1158 L-185.5 1159 L-186.5 1158 L-192.5 1159 L-193.5 1160 L-194.5 1159 L-200.5 1159 L-201.5 1158 L-202.5 1159 L-211.5 1159 L-212.5 1158 L-213.5 1159 L-216 1158.38 L-219.75 1158.75 L-220.25 1157 L-232.5 1157 L-233.5 1156 L-234.5 1157 L-235.5 1156 L-236.5 1157 L-237.5 1156 L-258.5 1155 L-259.5 1154 L-260.5 1155 L-261.5 1155 L-262.5 1154 L-263.5 1155 L-264.5 1154 L-265.5 1154 L-266.5 1155 L-267.5 1154 L-268.5 1155 L-269.5 1154 L-277.5 1154 L-279 1155.5 L-279 1156.5 L-282.5 1160 L-288.5 1160 L-291 1157.5 L-291.25 1156.25 L-293.5 1156 L-295.5 1154 L-299.5 1153 L-301 1151.5 L-301.5 1150 L-301.75 1148 L-300.25 1143 L-298 1138.5 L-296 1136.5 L-296 1106.5 L-297 1105.5 L-296 1104.5 L-296 1096.5 L-297 1095.5 L-296 1094.5 L-296 1084.5 L-297 1083.5 L-296 1082.5 L-296.5 1082 L-298 1082 L-297.5 1081 L-296 1080.75 L-296 1071.25 L-297.75 1070.75 L-298 1069.5 L-297 1068.5 L-298 1067.5 L-298 1064.5 L-297 1063.5 L-298 1062.5 L-298 1042.5 L-297 1041.5 L-298 1040.5 L-298 1015.5 L-299 1014.5 L-298 1013.5 L-299 1006.5 L-298 1005.5 L-299 1004.5 L-299 992.5 L-298 991.5 L-299 990.5 L-299 986.5 L-298 985.5 L-299 984.5 L-298 978.5 L-299 977.5 L-298 976.5 L-299 975.5 L-299 969.5 L-298 968.5 L-299 967.5 L-299 966.5 L-298 965.5 L-299 964.5 L-298.875 960.25 L-297.25 959.75 L-297 957.5 L-298 956.5 L-297 955.5 L-297 948 L-298 948.5 L-298 949.5 L-298.5 950 L-300 948.5 L-299 947.5 L-299 946.5 L-298.5 946 L-297.5 947 L-297 946.5 L-297 937.25 L-300 937 L-299.5 936 L-298.25 935.75 L-298.25 934.25 L-299.5 934 L-300 934 L-299.5 933 L-297 932.75 L-297 901.5 L-296 900.5 L-297 899.5 L-297 894.5 L-296 893.5 L-297 892.5 L-296 891.5 L-296 890.5 L-297 889.5 L-296 888.5 L-297 887.5 L-296 886.5 L-297 885.5 L-296 884.5 L-296 841.5 L-295 840.5 L-296 839.5 L-295 835.5 L-296 834.5 L-295 833.5 L-295.5 832 L-295.75 830 L-295 825.5 L-296 824.5 L-295 823.5 L-295 801.5 L-294 800.5 L-295 799.5 L-295 788.5 L-296 787.5 L-295 786.5 L-296 785.5 L-296 784.5 L-295 783.5 L-296 782.5 L-295.75 779.25 L-294.5 779 L-294 778.5 L-295 777.5 L-294 776.5 L-294.5 776 L-296 775.75 L-296.875 753 L-296.5 751 L-296 749.5 L-297 748.5 L-296 747.5 L-297 746.5 L-296 745.5 L-297 734.5 L-296 733.5 L-297 732.5 L-297 728.5 L-296 727.5 L-297 726.5 L-297 693 L-296 693.5 L-296 697 L-295 696.5 L-295 691.5 L-295.5 691 L-296.5 692 L-297 691.5 L-296.875 684.25 L-295.25 683.75 L-295 680.5 L-296 679.5 L-295 678.5 L-295 676.5 L-296 675.5 L-295 674.5 L-296 673.5 L-295 672.5 L-295 668.5 L-296 667.5 L-295 666.5 L-296 665.5 L-295 664.5 L-296 663.5 L-295 662.5 L-296 661.5 L-295 660.5 L-295 656.5 L-296 655.5 L-295 654.5 L-295.875 645 L-294 614.5 L-295 613.5 L-294 612.5 L-294.125 608.25 L-295.75 607.75 L-296.25 605.125 L-303.5 604 L-306 601.5 L-307 597.5 L-303.5 594 L-297.5 593 L-295 590.5 L-294.75 589.125 L-290.5 589 L-289.5 590 L-288.5 589 L-212.5 590 L-211.5 589 L-210.5 590 L-209.5 589 L-207.5 589 L-206.5 590 L-205.5 589 L-204.5 589 L-203.5 590 L-202.5 589 L-201.5 590 L-200.5 590 L-199.5 589 L-198.5 590 L-183.5 590 L-182.5 591 L-181.5 590 L-180.5 591 L-179.5 590 L-178 590.375 L-175 590.625 L-168.5 590 L-167.5 591 L-166.5 590 L-165.5 590 L-164.5 591 L-163.5 590 L-162.5 591 L-122.5 591 L-121.5 590 L-120.5 591 L-113.5 591 L-112.5 590 L-111.5 591 L-110.5 590 L-107.5 591 L-106.5 590 L-104.5 592 L-104 591.5 L-104 590.5 L-103.5 590 L-102.5 591 L-101.5 590 L-101 590.5 L-101 591.5 L-100.5 592 L-99.5 591 L-98.5 592 L-96.5 590 L-94.5 590 L-93.5 589 L-93 589.5 L-92.75 590.75 L-89.5 592 L-88.5 591 L-87.5 592 L-79.5 592 L-78.5 591 L-77.5 592 L-42.5 592 L-41.5 591 L-40.5 592 L-36.5 592 L-35.5 591 L-34.5 592 L-30.5 591 L-29.5 592 L-28.5 591 L-27.5 592 L72.5 591 L73.5 592 L74.5 591 L75.5 592 L76.5 591 L77.5 592 L81.5 591 L82.5 592 L83.5 591 L84.5 592 L126.5 592 L127.5 591 L128.5 592 L129.5 592 L130.5 591 L131.5 592 L133 591.5 L135 591.125 L163 591.25 L165 591.5 L166.5 592 L167.5 591 L168.5 592 L169.5 592 L170.5 591 L171.5 592 L181 591.5 L183.5 592 L184.5 591 L185.5 592 L186.5 591 L191.5 591 L192.5 592 L193.5 591 L194.5 592 L195.5 592 L196.5 591 L197.5 592 L198.5 591 L200.5 591 L201.5 592 L202.5 591 L203.5 592 L204.5 591 L210 591.75 L212 591.625 L214.5 591 L215.5 592 L216.5 591 L219.5 592 L220.5 591 L221.5 592 L222.5 591 L231.5 592 L232.5 591 L233.5 592 L234.5 592 L235.5 591 L236.5 592 L241.5 592 L242.5 591 L243.5 592 L244.5 591 L245.5 592 L249.5 592 L250.5 591 L251.5 592 L255 591.375 L257 590.625 L259.5 590 L262 592.5 L264.25 601.75 L265.75 602.25 L266.25 603.75 L268 604.25 L268 631.5 L269 632.5 L268 633.5 L268.5 634 L270.5 634 L271 634.5 L270 635.5 L270 637 L269 636.5 L269 635 L268 635.5 L268 637.5 L269 638.5 L268 639.5 L268 651.5 L268.5 652 L270 650.5 L270 648 L271 648.5 L271 651.5 L269.5 653 L268.25 653.25 L268 654.5 L268.5 655 L269.5 654 L270 654.5 L268.625 659 L268 666 L269 665.5 L269 661 L270 661.5 L270 669.75 L268.5 670 L268 670 L268.5 671 L270 671.25 L270 733.5 L271 734.5 L270 735.5 L271 736.5 L270 758.5 L271 759.5 L270 760.5 L270 762 L269 762.5 L269.5 763 L270 763 L271 764.5 L270.5 765 L269 765 L269.5 766 L271 766 L270.5 767 L269.5 767 L269 767.5 L270 768.5 L269 769.5 L269 770.5 L270 771.5 L269 772.5 L268 826.5 L269 827.5 L268 828.5 L268 829.5 L269 830.5 L268 831.5 L269 832.5 L269 835.5 L268 836.5 L269 837.5 L268.75 839 L268.625 844 L269 846.5 L268 847.5 L269 848.5 L269 850.5 L268 851.5 L269 852.5 L268 853.5 L268 855.5 L269 856.5 L268 857.5 L268 860.5 L269 861.5 L268 862.5 L268 910.75 L269.5 911 L270 911 L269.5 912 L268 912.25 L268.875 925 L268 935.5 L269 936.5 L268 937.5 L269 938.5 L268 939.5 L269 940.5 L268 941.5 L269 942.5 L268 943.5 L268 946.5 L269 947.5 L268 948.5 L268 949.5 L269 950.5 L268 951.5 L268 952.5 L269 953.5 L268 954.5 L269 961.5 L268 962.5 L269 963.5 L269 964.5 L269.5 965 L270.5 964 L271 964.5 L271 965.5 L272 966.5 L271 967.5 L271 969.5 L272 970.5 L271.5 971 L270.25 971.25 L270 973 L269 973.5 L269.5 974 L270 974 L271 975.5 L270 976.5 L271 979.5 L272 980.5 L271.5 981 L270 981.25 L270 1025.5 L269 1026.5 L270 1027.5 L269 1053.5 L268.5 1054 L267.5 1053 L267 1053.5 L267.25 1054.75 L268.75 1055.25 L268.75 1058.75 L267.5 1059 L267 1059.5 L268 1060.5 L267 1061.5 L267 1063.5 L269 1065.5 L268.75 1066.75 L267 1067.25 L267 1080.5 L266 1081.5 L267 1082.5 L266 1089.5 L267 1090.5 L266 1091.5 L265.125 1104 L265.875 1108 L264 1138.5 L267 1141.5 L267.375 1143 L267.375 1147 L267 1148.5 L263.5 1152 L255 1154.75 L253.5 1155 L252.5 1154 L251.5 1155 L250.5 1155 L249.5 1154 L248.5 1155 L188 1155.88 L186 1155.5 L184.5 1155 L183.5 1156 L182.5 1155 L181 1155.25 L172 1155.63 L170.5 1156 L169.5 1155 L168.5 1156 L167.5 1155 L166.5 1156 L95.5 1156 L94.5 1157 L93.5 1156 L77 1156.75 L75.5 1157 L74.5 1156 L73.5 1157 L72.5 1156 L71.5 1156 L71 1156.5 L72 1157.5 L71.5 1158 L70.25 1157.75 L70 1156.5 L69.5 1156 L68.5 1157 L64.5 1156 L63.5 1155 L61.5 1157 L61 1156.5 L60.75 1155.13 L56 1155.63 L54 1156 L53.5 1155 L53 1155.5 L53 1156 "/></g>
</svg>